<svg width="2007.34267578125px" height="122.021240234375px" xmlns="http://www.w3.org/2000/svg" viewBox="-753.671337890625 13.9893798828125 2007.34267578125 122.021240234375" style="background: rgba(0, 0, 0, 0);" preserveAspectRatio="xMidYMid"><defs><filter id="editing-extrusion" x="-100%" y="-100%" width="300%" height="300%"><feFlood result="color1" flood-color="#444444"></feFlood><feConvolveMatrix order="8,8" divisor="1" kernelMatrix="1 0 0 0 0 0 0 0 0 1 0 0 0 0 0 0 0 0 1 0 0 0 0 0 0 0 0 1 0 0 0 0 0 0 0 0 1 0 0 0 0 0 0 0 0 1 0 0 0 0 0 0 0 0 1 0 0 0 0 0 0 0 0 1" in="SourceAlpha" result="extrude"></feConvolveMatrix><feComposite in="color1" in2="extrude" result="comp-extrude" operator="in"></feComposite><feOffset dx="4" dy="4" in="comp-extrude" result="offset-extrude"></feOffset><feMerge><feMergeNode in="offset-extrude"></feMergeNode><feMergeNode in="SourceGraphic"></feMergeNode></feMerge></filter></defs><g filter="url(#editing-extrusion)"><g transform="translate(-481.2281494140625, 104.78218841552734)"><path d="M7.17 0L10.88-18.82L10.88-18.82Q9.02-36.16 2.50-39.87L2.50-39.87L2.50-39.87Q3.84-41.54 6.02-42.46L6.02-42.46L6.02-42.46Q8.19-43.39 10.82-43.39L10.82-43.39L10.82-43.39Q13.44-43.39 15.42-42.46L15.42-42.46L15.42-42.46Q17.41-41.54 18.69-39.55L18.69-39.55L18.69-39.55Q21.12-35.78 21.12-26.75L21.12-26.75L21.12-22.14L21.12-22.14Q24.96-33.41 28.80-38.27L28.80-38.27L28.80-38.27Q32.70-43.26 37.57-43.26L37.57-43.26L37.57-43.26Q39.49-43.26 40.77-42.27L40.77-42.27L40.77-42.27Q42.05-41.28 42.69-39.81L42.69-39.81L42.69-39.81Q37.76-37.63 33.02-31.36L33.02-31.36L33.02-31.36Q28.29-25.09 25.22-16.32L25.22-16.32L21.44 0L7.17 0ZM50.05 1.28L50.05 1.28L50.05 1.28Q35.97 1.28 35.97-11.97L35.97-11.97L35.97-11.97Q35.97-21.38 41.15-27.46L41.15-27.46L41.15-27.46Q46.66-33.92 56.19-33.92L56.19-33.92L56.19-33.92Q63.10-33.92 66.62-30.72L66.62-30.72L66.62-30.72Q70.14-27.52 70.14-20.80L70.14-20.80L70.14-20.80Q70.14-10.56 64.64-4.61L64.64-4.61L64.64-4.61Q59.26 1.28 50.05 1.28ZM51.71-26.56L51.71-26.56L51.71-26.56Q50.94-24.83 50.34-22.24L50.34-22.24L50.34-22.24Q49.73-19.65 48.96-15.55L48.96-15.55L48.96-15.55Q48.19-11.46 48.19-6.40L48.19-6.40L48.19-6.40Q48.19-4.74 48.74-3.65L48.74-3.65L48.74-3.65Q49.28-2.56 50.75-2.56L50.75-2.56L50.75-2.56Q52.22-2.56 53.15-3.26L53.15-3.26L53.15-3.26Q54.08-3.97 54.78-5.63L54.78-5.63L54.78-5.63Q56.06-8.58 57.09-14.05L57.09-14.05L57.09-14.05Q58.11-19.52 58.21-21.89L58.21-21.89L58.21-21.89Q58.30-24.26 58.30-26.02L58.30-26.02L58.30-26.02Q58.30-27.78 57.79-28.93L57.79-28.93L57.79-28.93Q57.28-30.08 55.84-30.08L55.84-30.08L55.84-30.08Q54.40-30.08 53.44-29.18L53.44-29.18L53.44-29.18Q52.48-28.29 51.71-26.56ZM94.46-2.69L94.46-2.69L94.46-2.69Q91.39 1.28 83.78 1.28L83.78 1.28L83.78 1.28Q79.81 1.28 76.93-1.12L76.93-1.12L76.93-1.12Q74.05-3.52 74.05-6.98L74.05-6.98L74.05-6.98Q74.05-8.90 74.24-9.86L74.24-9.86L78.53-32.64L91.52-33.92L86.85-9.22L86.85-9.22Q86.59-7.81 86.59-6.98L86.59-6.98L86.59-6.98Q86.59-3.26 88.83-3.26L88.83-3.26L88.83-3.26Q91.33-3.26 93.12-6.66L93.12-6.66L93.12-6.66Q93.70-7.74 93.95-9.15L93.95-9.15L98.50-32.64L111.10-33.92L106.37-8.96L106.37-8.96Q106.18-8 106.18-6.98L106.18-6.98L106.18-6.98Q106.18-5.95 106.75-4.83L106.75-4.83L106.75-4.83Q107.33-3.71 109.18-3.46L109.18-3.46L109.18-3.46Q108.80-1.92 107.46-0.90L107.46-0.90L107.46-0.90Q104.64 1.28 101.60 1.28L101.60 1.28L101.60 1.28Q98.56 1.28 96.77 0.19L96.77 0.19L96.77 0.19Q94.98-0.90 94.46-2.69ZM134.59-17.98L134.59-17.98L134.59-17.98Q136.90-22.08 136.90-26.24L136.90-26.24L136.90-26.24Q136.90-28.99 134.91-28.99L134.91-28.99L134.91-28.99Q133.38-28.99 131.78-26.37L131.78-26.37L131.78-26.37Q130.11-23.74 129.60-20.35L129.60-20.35L126.27 0L113.02 1.28L119.55-32.64L130.11-33.92L128.96-27.46L128.96-27.46Q132.10-33.92 139.14-33.92L139.14-33.92L139.14-33.92Q142.85-33.92 144.86-32L144.86-32L144.86-32Q146.88-30.08 146.88-26.14L146.88-26.14L146.88-26.14Q146.88-22.21 144.29-19.71L144.29-19.71L144.29-19.71Q141.70-17.22 137.28-17.22L137.28-17.22L137.28-17.22Q135.36-17.22 134.59-17.98ZM188.16 1.28L188.16 1.28L188.16 1.28Q180.42 1.28 180.42-4.74L180.42-4.74L180.42-4.74Q180.48-6.40 180.99-9.22L180.99-9.22L182.14-15.10L182.14-15.10Q183.87-23.42 183.87-25.28L183.87-25.28L183.87-25.28Q183.87-28.99 181.70-28.99L181.70-28.99L181.70-28.99Q178.05-28.99 176.13-19.46L176.13-19.46L172.35 0L159.49 1.28L166.14-32.70L176.64-33.92L175.62-27.65L175.62-27.65Q178.62-33.92 187.84-33.92L187.84-33.92L187.84-33.92Q192.32-33.92 194.21-32.03L194.21-32.03L194.21-32.03Q196.10-30.14 196.10-25.92L196.10-25.92L196.10-25.92Q196.10-21.95 194.05-12.67L194.05-12.67L194.05-12.67Q193.09-8.51 193.09-6.94L193.09-6.94L193.09-6.94Q193.09-5.38 193.95-4.48L193.95-4.48L193.95-4.48Q194.82-3.58 196.10-3.46L196.10-3.46L196.10-3.46Q195.46-1.28 193.25 0L193.25 0L193.25 0Q191.04 1.28 188.16 1.28ZM215.17 1.28L215.17 1.28L215.17 1.28Q201.09 1.28 201.09-11.97L201.09-11.97L201.09-11.97Q201.09-21.38 206.27-27.46L206.27-27.46L206.27-27.46Q211.78-33.92 221.31-33.92L221.31-33.92L221.31-33.92Q228.22-33.92 231.74-30.72L231.74-30.72L231.74-30.72Q235.26-27.52 235.26-20.80L235.26-20.80L235.26-20.80Q235.26-10.56 229.76-4.61L229.76-4.61L229.76-4.61Q224.38 1.28 215.17 1.28ZM216.83-26.56L216.83-26.56L216.83-26.56Q216.06-24.83 215.46-22.24L215.46-22.24L215.46-22.24Q214.85-19.65 214.08-15.55L214.08-15.55L214.08-15.55Q213.31-11.46 213.31-6.40L213.31-6.40L213.31-6.40Q213.31-4.74 213.86-3.65L213.86-3.65L213.86-3.65Q214.40-2.56 215.87-2.56L215.87-2.56L215.87-2.56Q217.34-2.56 218.27-3.26L218.27-3.26L218.27-3.26Q219.20-3.97 219.90-5.63L219.90-5.63L219.90-5.63Q221.18-8.58 222.21-14.05L222.21-14.05L222.21-14.05Q223.23-19.52 223.33-21.89L223.33-21.89L223.33-21.89Q223.42-24.26 223.42-26.02L223.42-26.02L223.42-26.02Q223.42-27.78 222.91-28.93L222.91-28.93L222.91-28.93Q222.40-30.08 220.96-30.08L220.96-30.08L220.96-30.08Q219.52-30.08 218.56-29.18L218.56-29.18L218.56-29.18Q217.60-28.29 216.83-26.56ZM285.12 1.28L285.12 1.28L285.12 1.28Q277.38 1.28 277.38-4.74L277.38-4.74L277.38-4.74Q277.38-7.36 278.50-12.45L278.50-12.45L278.50-12.45Q279.62-17.54 280-19.58L280-19.58L280-19.58Q280.90-24.26 280.90-25.73L280.90-25.73L280.90-25.73Q280.90-28.99 278.46-28.99L278.46-28.99L278.46-28.99Q276.86-28.99 275.33-26.78L275.33-26.78L275.33-26.78Q273.79-24.58 273.09-20.16L273.09-20.16L269.12 0L256.64 1.28L260.10-16.13L260.10-16.13Q260.67-19.01 261.18-22.27L261.18-22.27L261.18-22.27Q261.70-25.54 261.70-26.05L261.70-26.05L261.70-26.05Q261.70-28.99 259.52-28.99L259.52-28.99L259.52-28.99Q258.05-28.99 256.45-26.82L256.45-26.82L256.45-26.82Q254.85-24.64 253.95-20.16L253.95-20.16L250.05 0L237.44 1.28L244.16-32.64L254.59-33.92L253.50-27.46L253.50-27.46Q255.17-30.91 258.24-32.42L258.24-32.42L258.24-32.42Q261.31-33.92 266.11-33.92L266.11-33.92L266.11-33.92Q268.86-33.92 270.66-32.58L270.66-32.58L270.66-32.58Q272.45-31.23 273.02-29.06L273.02-29.06L273.02-29.06Q274.11-31.30 276.90-32.61L276.90-32.61L276.90-32.61Q279.68-33.92 283.10-33.92L283.10-33.92L283.10-33.92Q286.53-33.92 288.22-33.18L288.22-33.18L288.22-33.18Q289.92-32.45 290.94-31.23L290.94-31.23L290.94-31.23Q292.67-28.99 292.67-24.90L292.67-24.90L292.67-24.90Q292.67-20.86 290.94-12.48L290.94-12.48L290.94-12.48Q290.05-8.38 290.05-6.88L290.05-6.88L290.05-6.88Q290.05-5.38 290.91-4.48L290.91-4.48L290.91-4.48Q291.78-3.58 293.06-3.46L293.06-3.46L293.06-3.46Q292.42-1.28 290.21 0L290.21 0L290.21 0Q288 1.28 285.12 1.28ZM313.34-3.52L313.34-3.52L313.34-3.52Q311.36 1.28 305.02 1.28L305.02 1.28L305.02 1.28Q301.76 1.28 299.71-0.96L299.71-0.96L299.71-0.96Q297.98-2.94 297.98-4.93L297.98-4.93L297.98-4.93Q297.98-10.11 300.35-20.22L300.35-20.22L302.72-32.64L315.71-33.92L311.81-13.70L311.81-13.70Q310.72-8.96 310.72-7.30L310.72-7.30L310.72-7.30Q310.72-3.65 313.34-3.52ZM303.87-41.54L303.87-41.54L303.87-41.54Q303.87-44.03 305.95-45.38L305.95-45.38L305.95-45.38Q308.03-46.72 311.04-46.72L311.04-46.72L311.04-46.72Q314.05-46.72 315.87-45.38L315.87-45.38L315.87-45.38Q317.70-44.03 317.70-41.54L317.70-41.54L317.70-41.54Q317.70-39.04 315.68-37.76L315.68-37.76L315.68-37.76Q313.66-36.48 310.66-36.48L310.66-36.48L310.66-36.48Q307.65-36.48 305.76-37.76L305.76-37.76L305.76-37.76Q303.87-39.04 303.87-41.54ZM345.86 1.28L345.86 1.28L345.86 1.28Q338.11 1.28 338.11-4.74L338.11-4.74L338.11-4.74Q338.18-6.40 338.69-9.22L338.69-9.22L339.84-15.10L339.84-15.10Q341.57-23.42 341.57-25.28L341.57-25.28L341.57-25.28Q341.57-28.99 339.39-28.99L339.39-28.99L339.39-28.99Q335.74-28.99 333.82-19.46L333.82-19.46L330.05 0L317.18 1.28L323.84-32.70L334.34-33.92L333.31-27.65L333.31-27.65Q336.32-33.92 345.54-33.92L345.54-33.92L345.54-33.92Q350.02-33.92 351.90-32.03L351.90-32.03L351.90-32.03Q353.79-30.14 353.79-25.92L353.79-25.92L353.79-25.92Q353.79-21.95 351.74-12.67L351.74-12.67L351.74-12.67Q350.78-8.51 350.78-6.94L350.78-6.94L350.78-6.94Q350.78-5.38 351.65-4.48L351.65-4.48L351.65-4.48Q352.51-3.58 353.79-3.46L353.79-3.46L353.79-3.46Q353.15-1.28 350.94 0L350.94 0L350.94 0Q348.74 1.28 345.86 1.28ZM361.70-1.92L361.70-1.92L361.70-1.92Q360.19-3.58 359.52-6.21L359.52-6.21L359.52-6.21Q358.85-8.83 358.85-13.12L358.85-13.12L358.85-13.12Q358.85-17.41 360.32-21.31L360.32-21.31L360.32-21.31Q361.79-25.22 364.48-28.03L364.48-28.03L364.48-28.03Q369.98-33.92 379.07-33.92L379.07-33.92L379.07-33.92Q382.34-33.92 384.70-32.83L384.70-32.83L395.65-33.92L390.91-8.96L390.91-8.96Q390.72-8.19 390.72-6.78L390.72-6.78L390.72-6.78Q390.72-5.38 391.58-4.48L391.58-4.48L391.58-4.48Q392.45-3.58 393.73-3.46L393.73-3.46L393.73-3.46Q393.09-1.28 390.75 0L390.75 0L390.75 0Q388.42 1.28 385.79 1.28L385.79 1.28L385.79 1.28Q383.17 1.28 381.41 0.29L381.41 0.29L381.41 0.29Q379.65-0.70 379.14-2.37L379.14-2.37L379.14-2.37Q378.11-0.77 375.94 0.26L375.94 0.26L375.94 0.26Q373.76 1.28 370.85 1.28L370.85 1.28L370.85 1.28Q367.94 1.28 365.57 0.51L365.57 0.51L365.57 0.51Q363.20-0.26 361.70-1.92ZM375.20-27.90L375.20-27.90L375.20-27.90Q374.46-26.75 373.82-24.80L373.82-24.80L373.82-24.80Q373.18-22.85 372.13-17.63L372.13-17.63L372.13-17.63Q371.07-12.42 371.07-8.70L371.07-8.70L371.07-8.70Q371.07-4.99 371.65-3.90L371.65-3.90L371.65-3.90Q372.22-2.82 373.25-2.82L373.25-2.82L373.25-2.82Q375.30-2.82 376.80-4.77L376.80-4.77L376.80-4.77Q378.30-6.72 378.88-10.18L378.88-10.18L382.27-28.93L382.27-28.93Q380.93-30.08 379.36-30.08L379.36-30.08L379.36-30.08Q377.79-30.08 376.86-29.57L376.86-29.57L376.86-29.57Q375.94-29.06 375.20-27.90ZM400.13-6.40L400.13-6.40L400.13-6.40Q400.13-8.13 401.02-12.48L401.02-12.48L404.42-29.76L400.64-29.76L400.90-31.68L400.90-31.68Q408.58-33.98 416-39.62L416-39.62L419.07-39.62L417.54-32.64L422.53-32.64L421.95-29.76L417.02-29.76L413.76-12.48L413.76-12.48Q412.93-8.51 412.93-7.17L412.93-7.17L412.93-7.17Q412.93-4.10 415.62-3.46L415.62-3.46L415.62-3.46Q414.98-1.28 412.67 0L412.67 0L412.67 0Q410.37 1.28 407.10 1.28L407.10 1.28L407.10 1.28Q403.84 1.28 401.98-0.77L401.98-0.77L401.98-0.77Q400.13-2.82 400.13-6.40ZM437.57-3.52L437.57-3.52L437.57-3.52Q435.58 1.28 429.25 1.28L429.25 1.28L429.25 1.28Q425.98 1.28 423.94-0.96L423.94-0.96L423.94-0.96Q422.21-2.94 422.21-4.93L422.21-4.93L422.21-4.93Q422.21-10.11 424.58-20.22L424.58-20.22L426.94-32.64L439.94-33.92L436.03-13.70L436.03-13.70Q434.94-8.96 434.94-7.30L434.94-7.30L434.94-7.30Q434.94-3.65 437.57-3.52ZM428.10-41.54L428.10-41.54L428.10-41.54Q428.10-44.03 430.18-45.38L430.18-45.38L430.18-45.38Q432.26-46.72 435.26-46.72L435.26-46.72L435.26-46.72Q438.27-46.72 440.10-45.38L440.10-45.38L440.10-45.38Q441.92-44.03 441.92-41.54L441.92-41.54L441.92-41.54Q441.92-39.04 439.90-37.76L439.90-37.76L439.90-37.76Q437.89-36.48 434.88-36.48L434.88-36.48L434.88-36.48Q431.87-36.48 429.98-37.76L429.98-37.76L429.98-37.76Q428.10-39.04 428.10-41.54ZM456.96 1.28L456.96 1.28L456.96 1.28Q442.88 1.28 442.88-11.97L442.88-11.97L442.88-11.97Q442.88-21.38 448.06-27.46L448.06-27.46L448.06-27.46Q453.57-33.92 463.10-33.92L463.10-33.92L463.10-33.92Q470.02-33.92 473.54-30.72L473.54-30.72L473.54-30.72Q477.06-27.52 477.06-20.80L477.06-20.80L477.06-20.80Q477.06-10.56 471.55-4.61L471.55-4.61L471.55-4.61Q466.18 1.28 456.96 1.28ZM458.62-26.56L458.62-26.56L458.62-26.56Q457.86-24.83 457.25-22.24L457.25-22.24L457.25-22.24Q456.64-19.65 455.87-15.55L455.87-15.55L455.87-15.55Q455.10-11.46 455.10-6.40L455.10-6.40L455.10-6.40Q455.10-4.74 455.65-3.65L455.65-3.65L455.65-3.65Q456.19-2.56 457.66-2.56L457.66-2.56L457.66-2.56Q459.14-2.56 460.06-3.26L460.06-3.26L460.06-3.26Q460.99-3.97 461.70-5.63L461.70-5.63L461.70-5.63Q462.98-8.58 464-14.05L464-14.05L464-14.05Q465.02-19.52 465.12-21.89L465.12-21.89L465.12-21.89Q465.22-24.26 465.22-26.02L465.22-26.02L465.22-26.02Q465.22-27.78 464.70-28.93L464.70-28.93L464.70-28.93Q464.19-30.08 462.75-30.08L462.75-30.08L462.75-30.08Q461.31-30.08 460.35-29.18L460.35-29.18L460.35-29.18Q459.39-28.29 458.62-26.56ZM507.90 1.28L507.90 1.28L507.90 1.28Q500.16 1.28 500.16-4.74L500.16-4.74L500.16-4.74Q500.22-6.40 500.74-9.22L500.74-9.22L501.89-15.10L501.89-15.10Q503.62-23.42 503.62-25.28L503.62-25.28L503.62-25.28Q503.62-28.99 501.44-28.99L501.44-28.99L501.44-28.99Q497.79-28.99 495.87-19.46L495.87-19.46L492.10 0L479.23 1.28L485.89-32.70L496.38-33.92L495.36-27.65L495.36-27.65Q498.37-33.92 507.58-33.92L507.58-33.92L507.58-33.92Q512.06-33.92 513.95-32.03L513.95-32.03L513.95-32.03Q515.84-30.14 515.84-25.92L515.84-25.92L515.84-25.92Q515.84-21.95 513.79-12.67L513.79-12.67L513.79-12.67Q512.83-8.51 512.83-6.94L512.83-6.94L512.83-6.94Q512.83-5.38 513.70-4.48L513.70-4.48L513.70-4.48Q514.56-3.58 515.84-3.46L515.84-3.46L515.84-3.46Q515.20-1.28 512.99 0L512.99 0L512.99 0Q510.78 1.28 507.90 1.28ZM549.44-3.52L549.44-3.52L549.44-3.52Q547.46 1.28 541.12 1.28L541.12 1.28L541.12 1.28Q537.92 1.28 535.87-0.96L535.87-0.96L535.87-0.96Q534.21-2.82 534.21-4.93L534.21-4.93L534.21-4.93Q534.21-9.73 536.45-20.22L536.45-20.22L541.12-44.80L554.11-46.08L547.90-13.70L547.90-13.70Q546.82-8.96 546.82-7.30L546.82-7.30L546.82-7.30Q546.82-3.65 549.44-3.52ZM570.24-3.52L570.24-3.52L570.24-3.52Q568.26 1.28 561.92 1.28L561.92 1.28L561.92 1.28Q558.66 1.28 556.61-0.96L556.61-0.96L556.61-0.96Q554.88-2.94 554.88-4.93L554.88-4.93L554.88-4.93Q554.88-10.11 557.25-20.22L557.25-20.22L559.62-32.64L572.61-33.92L568.70-13.70L568.70-13.70Q567.62-8.96 567.62-7.30L567.62-7.30L567.62-7.30Q567.62-3.65 570.24-3.52ZM560.77-41.54L560.77-41.54L560.77-41.54Q560.77-44.03 562.85-45.38L562.85-45.38L562.85-45.38Q564.93-46.72 567.94-46.72L567.94-46.72L567.94-46.72Q570.94-46.72 572.77-45.38L572.77-45.38L572.77-45.38Q574.59-44.03 574.59-41.54L574.59-41.54L574.59-41.54Q574.59-39.04 572.58-37.76L572.58-37.76L572.58-37.76Q570.56-36.48 567.55-36.48L567.55-36.48L567.55-36.48Q564.54-36.48 562.66-37.76L562.66-37.76L562.66-37.76Q560.77-39.04 560.77-41.54ZM594.82-22.46L594.82-22.46L594.82-22.46Q595.71-24.83 595.71-26.88L595.71-26.88L595.71-26.88Q595.71-30.66 592.64-30.66L592.64-30.66L592.64-30.66Q591.04-30.66 589.73-29.22L589.73-29.22L589.73-29.22Q588.42-27.78 588.42-25.98L588.42-25.98L588.42-25.98Q588.42-24.70 589.44-23.68L589.44-23.68L589.44-23.68Q590.91-22.27 594.69-19.97L594.69-19.97L594.69-19.97Q598.46-17.66 599.90-15.78L599.90-15.78L599.90-15.78Q601.34-13.89 601.34-11.30L601.34-11.30L601.34-11.30Q601.34-8.70 600.10-6.34L600.10-6.34L600.10-6.34Q598.85-3.97 596.61-2.30L596.61-2.30L596.61-2.30Q591.81 1.28 584.13 1.28L584.13 1.28L584.13 1.28Q579.97 1.28 576.77-0.90L576.77-0.90L576.77-0.90Q573.57-3.01 573.57-5.50L573.57-5.50L573.57-5.50Q573.57-8 575.39-9.47L575.39-9.47L575.39-9.47Q577.22-10.94 579.90-10.94L579.90-10.94L579.90-10.94Q582.59-10.94 584.26-9.92L584.26-9.92L584.26-9.92Q583.42-7.81 583.42-6.40L583.42-6.40L583.42-6.40Q583.42-2.18 587.01-2.18L587.01-2.18L587.01-2.18Q588.54-2.18 589.57-3.14L589.57-3.14L589.57-3.14Q590.59-4.10 590.59-5.76L590.59-5.76L590.59-5.76Q590.59-9.02 585.09-12.48L585.09-12.48L585.09-12.48Q580.61-15.42 579.58-16.58L579.58-16.58L579.58-16.58Q577.86-18.62 577.86-21.18L577.86-21.18L577.86-21.18Q577.86-23.74 579.07-26.18L579.07-26.18L579.07-26.18Q580.29-28.61 582.53-30.34L582.53-30.34L582.53-30.34Q587.20-33.92 595.33-33.92L595.33-33.92L595.33-33.92Q599.49-33.92 601.95-32.26L601.95-32.26L601.95-32.26Q604.42-30.59 604.42-27.78L604.42-27.78L604.42-27.78Q604.42-24.96 602.72-23.36L602.72-23.36L602.72-23.36Q601.02-21.76 597.95-21.76L597.95-21.76L597.95-21.76Q595.84-21.76 594.82-22.46ZM607.81-6.40L607.81-6.40L607.81-6.40Q607.81-8.13 608.70-12.48L608.70-12.48L612.10-29.76L608.32-29.76L608.58-31.68L608.58-31.68Q616.26-33.98 623.68-39.62L623.68-39.62L626.75-39.62L625.22-32.64L630.21-32.64L629.63-29.76L624.70-29.76L621.44-12.48L621.44-12.48Q620.61-8.51 620.61-7.17L620.61-7.17L620.61-7.17Q620.61-4.10 623.30-3.46L623.30-3.46L623.30-3.46Q622.66-1.28 620.35 0L620.35 0L620.35 0Q618.05 1.28 614.78 1.28L614.78 1.28L614.78 1.28Q611.52 1.28 609.66-0.77L609.66-0.77L609.66-0.77Q607.81-2.82 607.81-6.40ZM658.43-3.52L658.43-3.52L658.43-3.52Q656.45 1.28 650.11 1.28L650.11 1.28L650.11 1.28Q646.85 1.28 644.80-0.96L644.80-0.96L644.80-0.96Q643.07-2.94 643.07-4.93L643.07-4.93L643.07-4.93Q643.07-10.11 645.44-20.22L645.44-20.22L647.81-32.64L660.80-33.92L656.90-13.70L656.90-13.70Q655.81-8.96 655.81-7.30L655.81-7.30L655.81-7.30Q655.81-3.65 658.43-3.52ZM648.96-41.54L648.96-41.54L648.96-41.54Q648.96-44.03 651.04-45.38L651.04-45.38L651.04-45.38Q653.12-46.72 656.13-46.72L656.13-46.72L656.13-46.72Q659.14-46.72 660.96-45.38L660.96-45.38L660.96-45.38Q662.78-44.03 662.78-41.54L662.78-41.54L662.78-41.54Q662.78-39.04 660.77-37.76L660.77-37.76L660.77-37.76Q658.75-36.48 655.74-36.48L655.74-36.48L655.74-36.48Q652.74-36.48 650.85-37.76L650.85-37.76L650.85-37.76Q648.96-39.04 648.96-41.54ZM683.01-22.46L683.01-22.46L683.01-22.46Q683.90-24.83 683.90-26.88L683.90-26.88L683.90-26.88Q683.90-30.66 680.83-30.66L680.83-30.66L680.83-30.66Q679.23-30.66 677.92-29.22L677.92-29.22L677.92-29.22Q676.61-27.78 676.61-25.98L676.61-25.98L676.61-25.98Q676.61-24.70 677.63-23.68L677.63-23.68L677.63-23.68Q679.10-22.27 682.88-19.97L682.88-19.97L682.88-19.97Q686.66-17.66 688.10-15.78L688.10-15.78L688.10-15.78Q689.54-13.89 689.54-11.30L689.54-11.30L689.54-11.30Q689.54-8.70 688.29-6.34L688.29-6.34L688.29-6.34Q687.04-3.97 684.80-2.30L684.80-2.30L684.80-2.30Q680 1.28 672.32 1.28L672.32 1.28L672.32 1.28Q668.16 1.28 664.96-0.90L664.96-0.90L664.96-0.90Q661.76-3.01 661.76-5.50L661.76-5.50L661.76-5.50Q661.76-8 663.58-9.47L663.58-9.47L663.58-9.47Q665.41-10.94 668.10-10.94L668.10-10.94L668.10-10.94Q670.78-10.94 672.45-9.92L672.45-9.92L672.45-9.92Q671.62-7.81 671.62-6.40L671.62-6.40L671.62-6.40Q671.62-2.18 675.20-2.18L675.20-2.18L675.20-2.18Q676.74-2.18 677.76-3.14L677.76-3.14L677.76-3.14Q678.78-4.10 678.78-5.76L678.78-5.76L678.78-5.76Q678.78-9.02 673.28-12.48L673.28-12.48L673.28-12.48Q668.80-15.42 667.78-16.58L667.78-16.58L667.78-16.58Q666.05-18.62 666.05-21.18L666.05-21.18L666.05-21.18Q666.05-23.74 667.26-26.18L667.26-26.18L667.26-26.18Q668.48-28.61 670.72-30.34L670.72-30.34L670.72-30.34Q675.39-33.92 683.52-33.92L683.52-33.92L683.52-33.92Q687.68-33.92 690.14-32.26L690.14-32.26L690.14-32.26Q692.61-30.59 692.61-27.78L692.61-27.78L692.61-27.78Q692.61-24.96 690.91-23.36L690.91-23.36L690.91-23.36Q689.22-21.76 686.14-21.76L686.14-21.76L686.14-21.76Q684.03-21.76 683.01-22.46ZM734.08-10.82L734.08-10.82L734.08-10.82Q735.68-9.73 735.68-7.33L735.68-7.33L735.68-7.33Q735.68-4.93 734.46-3.39L734.46-3.39L734.46-3.39Q733.25-1.86 731.26-0.83L731.26-0.83L731.26-0.83Q727.17 1.28 722.75 1.28L722.75 1.28L722.75 1.28Q718.34 1.28 715.74 0.32L715.74 0.32L715.74 0.32Q713.15-0.64 711.42-2.43L711.42-2.43L711.42-2.43Q708.03-5.82 708.03-12.03L708.03-12.03L708.03-12.03Q708.03-21.70 713.28-27.58L713.28-27.58L713.28-27.58Q718.91-33.92 728.70-33.92L728.70-33.92L728.70-33.92Q734.78-33.92 737.79-31.36L737.79-31.36L737.79-31.36Q740.03-29.44 740.03-26.30L740.03-26.30L740.03-26.30Q740.03-15.04 720.58-15.04L720.58-15.04L720.58-15.04Q720.32-13.38 720.32-11.97L720.32-11.97L720.32-11.97Q720.32-9.02 721.63-7.90L721.63-7.90L721.63-7.90Q722.94-6.78 725.38-6.78L725.38-6.78L725.38-6.78Q727.81-6.78 730.40-7.90L730.40-7.90L730.40-7.90Q732.99-9.02 734.08-10.82ZM721.02-17.79L721.02-17.79L721.02-17.79Q725.57-17.79 728.19-20.61L728.19-20.61L728.19-20.61Q730.82-23.30 730.82-27.58L730.82-27.58L730.82-27.58Q730.82-29.06 730.27-29.86L730.27-29.86L730.27-29.86Q729.73-30.66 728.64-30.66L728.64-30.66L728.64-30.66Q727.55-30.66 726.62-30.24L726.62-30.24L726.62-30.24Q725.70-29.82 724.74-28.42L724.74-28.42L724.74-28.42Q722.37-25.22 721.02-17.79ZM788.29 1.28L788.29 1.28L788.29 1.28Q780.54 1.28 780.54-4.74L780.54-4.74L780.54-4.74Q780.54-7.36 781.66-12.45L781.66-12.45L781.66-12.45Q782.78-17.54 783.17-19.58L783.17-19.58L783.17-19.58Q784.06-24.26 784.06-25.73L784.06-25.73L784.06-25.73Q784.06-28.99 781.63-28.99L781.63-28.99L781.63-28.99Q780.03-28.99 778.50-26.78L778.50-26.78L778.50-26.78Q776.96-24.58 776.26-20.16L776.26-20.16L772.29 0L759.81 1.28L763.26-16.13L763.26-16.13Q763.84-19.01 764.35-22.27L764.35-22.27L764.35-22.27Q764.86-25.54 764.86-26.05L764.86-26.05L764.86-26.05Q764.86-28.99 762.69-28.99L762.69-28.99L762.69-28.99Q761.22-28.99 759.62-26.82L759.62-26.82L759.62-26.82Q758.02-24.64 757.12-20.16L757.12-20.16L753.22 0L740.61 1.28L747.33-32.64L757.76-33.92L756.67-27.46L756.67-27.46Q758.34-30.91 761.41-32.42L761.41-32.42L761.41-32.42Q764.48-33.92 769.28-33.92L769.28-33.92L769.28-33.92Q772.03-33.92 773.82-32.58L773.82-32.58L773.82-32.58Q775.62-31.23 776.19-29.06L776.19-29.06L776.19-29.06Q777.28-31.30 780.06-32.61L780.06-32.61L780.06-32.61Q782.85-33.92 786.27-33.92L786.27-33.92L786.27-33.92Q789.70-33.92 791.39-33.18L791.39-33.18L791.39-33.18Q793.09-32.45 794.11-31.23L794.11-31.23L794.11-31.23Q795.84-28.99 795.84-24.90L795.84-24.90L795.84-24.90Q795.84-20.86 794.11-12.48L794.11-12.48L794.11-12.48Q793.22-8.38 793.22-6.88L793.22-6.88L793.22-6.88Q793.22-5.38 794.08-4.48L794.08-4.48L794.08-4.48Q794.94-3.58 796.22-3.46L796.22-3.46L796.22-3.46Q795.58-1.28 793.38 0L793.38 0L793.38 0Q791.17 1.28 788.29 1.28ZM830.98-4.38L830.98-4.38L830.98-4.38Q828.29-1.66 824.61-0.19L824.61-0.19L824.61-0.19Q820.93 1.28 817.28 1.28L817.28 1.28L817.28 1.28Q813.63 1.28 812.35 0.64L812.35 0.64L810.37 11.52L797.38 12.80L806.21-32.64L816.64-33.73L815.81-29.31L815.81-29.31Q818.50-33.86 824.06-33.86L824.06-33.86L824.06-33.86Q830.34-33.86 833.66-29.82L833.66-29.82L833.66-29.82Q836.61-26.18 836.61-20.61L836.61-20.61L836.61-20.61Q836.61-15.04 835.14-11.07L835.14-11.07L835.14-11.07Q833.66-7.10 830.98-4.38ZM816.51-22.34L813.12-3.58L813.12-3.58Q814.46-2.43 816.13-2.43L816.13-2.43L816.13-2.43Q817.79-2.43 818.75-3.07L818.75-3.07L818.75-3.07Q819.71-3.71 820.42-4.99L820.42-4.99L820.42-4.99Q822.34-8.45 823.87-18.94L823.87-18.94L823.87-18.94Q824.32-22.02 824.32-25.02L824.32-25.02L824.32-25.02Q824.32-28.03 823.65-28.99L823.65-28.99L823.65-28.99Q822.98-29.95 821.70-29.95L821.70-29.95L821.70-29.95Q817.79-29.95 816.51-22.34L816.51-22.34ZM841.47-6.40L841.47-6.40L841.47-6.40Q841.47-8.13 842.37-12.48L842.37-12.48L845.76-29.76L841.98-29.76L842.24-31.68L842.24-31.68Q849.92-33.98 857.34-39.62L857.34-39.62L860.42-39.62L858.88-32.64L863.87-32.64L863.30-29.76L858.37-29.76L855.10-12.48L855.10-12.48Q854.27-8.51 854.27-7.17L854.27-7.17L854.27-7.17Q854.27-4.10 856.96-3.46L856.96-3.46L856.96-3.46Q856.32-1.28 854.02 0L854.02 0L854.02 0Q851.71 1.28 848.45 1.28L848.45 1.28L848.45 1.28Q845.18 1.28 843.33-0.77L843.33-0.77L843.33-0.77Q841.47-2.82 841.47-6.40ZM883.90-7.23L883.90-7.23L883.90-7.23Q880.58-3.78 874.50-3.78L874.50-3.78L874.50-3.78Q866.88-3.78 865.28-9.34L865.28-9.34L865.28-9.34Q864.77-11.01 864.77-12.86L864.77-12.86L864.77-12.86Q864.77-14.72 865.15-16.64L865.15-16.64L868.16-32.64L881.15-33.92L877.63-15.30L877.63-15.30Q877.50-14.46 877.31-13.57L877.31-13.57L877.31-13.57Q877.12-12.67 877.12-11.74L877.12-11.74L877.12-11.74Q877.12-10.82 877.44-10.21L877.44-10.21L877.44-10.21Q877.76-9.60 878.21-9.22L878.21-9.22L878.21-9.22Q878.98-8.70 880.35-8.70L880.35-8.70L880.35-8.70Q881.73-8.70 882.91-10.37L882.91-10.37L882.91-10.37Q884.10-12.03 884.67-14.91L884.67-14.91L888.19-32.64L900.80-33.92L896-8.77L896-8.77Q893.63 3.52 888.77 8.38L888.77 8.38L888.77 8.38Q886.27 10.88 883.04 11.87L883.04 11.87L883.04 11.87Q879.81 12.86 875.65 12.86L875.65 12.86L875.65 12.86Q868.93 12.86 865.09 10.75L865.09 10.75L865.09 10.75Q861.25 8.64 861.25 5.12L861.25 5.12L861.25 5.12Q861.25 2.50 863.23 0.99L863.23 0.99L863.23 0.99Q865.22-0.51 868.29-0.51L868.29-0.51L868.29-0.51Q870.98-0.51 873.02 0.64L873.02 0.64L873.02 0.64Q874.24 1.34 874.82 2.24L874.82 2.24L874.82 2.24Q873.34 3.52 873.34 5.63L873.34 5.63L873.34 5.63Q873.34 8.45 875.90 8.45L875.90 8.45L875.90 8.45Q880.13 8.45 882.56-1.28L882.56-1.28L882.56-1.28Q883.26-4.16 883.90-7.23ZM914.56-3.78L914.56-3.78L914.56-3.78Q914.56-6.21 916.38-7.52L916.38-7.52L916.38-7.52Q918.21-8.83 920.90-8.83L920.90-8.83L920.90-8.83Q923.58-8.83 925.28-7.52L925.28-7.52L925.28-7.52Q926.98-6.21 926.98-3.78L926.98-3.78L926.98-3.78Q926.98-1.34 925.09 0L925.09 0L925.09 0Q923.20 1.34 920.51 1.34L920.51 1.34L920.51 1.34Q917.82 1.34 916.19 0L916.19 0L916.19 0Q914.56-1.34 914.56-3.78ZM918.02-15.81L918.02-15.81L918.02-15.81Q918.02-16.26 918.14-16.90L918.14-16.90L923.14-42.62L923.14-42.62Q925.50-43.52 928.32-43.52L928.32-43.52L928.32-43.52Q931.14-43.52 932.61-41.73L932.61-41.73L932.61-41.73Q934.08-39.94 934.08-37.28L934.08-37.28L934.08-37.28Q934.08-34.62 933.06-31.65L933.06-31.65L933.06-31.65Q932.03-28.67 930.78-25.66L930.78-25.66L930.78-25.66Q929.54-22.66 928.48-19.55L928.48-19.55L928.48-19.55Q927.42-16.45 927.36-13.18L927.36-13.18L927.36-13.18Q925.89-11.52 923.33-11.52L923.33-11.52L923.33-11.52Q920.77-11.52 919.39-12.70L919.39-12.70L919.39-12.70Q918.02-13.89 918.02-15.81ZM972.99-29.57L972.99-29.57L972.99-29.57Q973.95-31.49 973.95-33.28L973.95-33.28L973.95-33.28Q973.95-35.07 973.76-36.06L973.76-36.06L973.76-36.06Q973.57-37.06 973.12-37.82L973.12-37.82L973.12-37.82Q972.16-39.49 970.24-39.49L970.24-39.49L970.24-39.49Q967.87-39.49 965.95-37.76L965.95-37.76L965.95-37.76Q963.90-35.97 963.90-33.15L963.90-33.15L963.90-33.15Q963.90-31.36 965.15-29.98L965.15-29.98L965.15-29.98Q966.40-28.61 968.32-27.33L968.32-27.33L968.32-27.33Q970.24-26.05 972.42-24.77L972.42-24.77L972.42-24.77Q974.59-23.49 976.51-21.95L976.51-21.95L976.51-21.95Q980.93-18.43 980.93-13.70L980.93-13.70L980.93-13.70Q980.93-10.50 979.23-7.78L979.23-7.78L979.23-7.78Q977.54-5.06 974.72-3.07L974.72-3.07L974.72-3.07Q968.58 1.28 960.45 1.28L960.45 1.28L960.45 1.28Q953.86 1.28 950.46-0.86L950.46-0.86L950.46-0.86Q947.07-3.01 947.07-6.27L947.07-6.27L947.07-6.27Q947.07-12.10 951.62-13.57L951.62-13.57L951.62-13.57Q952.90-14.02 954.85-14.02L954.85-14.02L954.85-14.02Q956.80-14.02 959.04-13.18L959.04-13.18L959.04-13.18Q958.02-10.56 958.02-8.19L958.02-8.19L958.02-8.19Q958.02-3.07 961.66-3.07L961.66-3.07L961.66-3.07Q964.03-3.07 965.98-4.80L965.98-4.80L965.98-4.80Q967.94-6.53 967.94-8.48L967.94-8.48L967.94-8.48Q967.94-10.43 966.69-11.84L966.69-11.84L966.69-11.84Q965.44-13.25 963.58-14.37L963.58-14.37L963.58-14.37Q961.73-15.49 959.58-16.58L959.58-16.58L959.58-16.58Q957.44-17.66 955.58-19.20L955.58-19.20L955.58-19.20Q951.23-22.72 951.23-28.35L951.23-28.35L951.23-28.35Q951.23-32 953.02-34.85L953.02-34.85L953.02-34.85Q954.82-37.70 957.70-39.62L957.70-39.62L957.70-39.62Q963.46-43.52 970.53-43.52L970.53-43.52L970.53-43.52Q977.60-43.52 981.02-41.41L981.02-41.41L981.02-41.41Q984.45-39.30 984.45-35.71L984.45-35.71L984.45-35.71Q984.45-32.58 982.02-30.59L982.02-30.59L982.02-30.59Q979.90-28.93 977.34-28.93L977.34-28.93L977.34-28.93Q974.78-28.93 972.99-29.57ZM986.82-6.40L986.82-6.40L986.82-6.40Q986.82-8.13 987.71-12.48L987.71-12.48L991.10-29.76L987.33-29.76L987.58-31.68L987.58-31.68Q995.26-33.98 1002.69-39.62L1002.69-39.62L1005.76-39.62L1004.22-32.64L1009.22-32.64L1008.64-29.76L1003.71-29.76L1000.45-12.48L1000.45-12.48Q999.62-8.51 999.62-7.17L999.62-7.17L999.62-7.17Q999.62-4.10 1002.30-3.46L1002.30-3.46L1002.30-3.46Q1001.66-1.28 999.36 0L999.36 0L999.36 0Q997.06 1.28 993.79 1.28L993.79 1.28L993.79 1.28Q990.53 1.28 988.67-0.77L988.67-0.77L988.67-0.77Q986.82-2.82 986.82-6.40ZM1011.42-1.92L1011.42-1.92L1011.42-1.92Q1009.92-3.58 1009.25-6.21L1009.25-6.21L1009.25-6.21Q1008.58-8.83 1008.58-13.12L1008.58-13.12L1008.58-13.12Q1008.58-17.41 1010.05-21.31L1010.05-21.31L1010.05-21.31Q1011.52-25.22 1014.21-28.03L1014.21-28.03L1014.21-28.03Q1019.71-33.92 1028.80-33.92L1028.80-33.92L1028.80-33.92Q1032.06-33.92 1034.43-32.83L1034.43-32.83L1045.38-33.92L1040.64-8.96L1040.64-8.96Q1040.45-8.19 1040.45-6.78L1040.45-6.78L1040.45-6.78Q1040.45-5.38 1041.31-4.48L1041.31-4.48L1041.31-4.48Q1042.18-3.58 1043.46-3.46L1043.46-3.46L1043.46-3.46Q1042.82-1.28 1040.48 0L1040.48 0L1040.48 0Q1038.14 1.28 1035.52 1.28L1035.52 1.28L1035.52 1.28Q1032.90 1.28 1031.14 0.29L1031.14 0.29L1031.14 0.29Q1029.38-0.70 1028.86-2.37L1028.86-2.37L1028.86-2.37Q1027.84-0.77 1025.66 0.26L1025.66 0.26L1025.66 0.26Q1023.49 1.28 1020.58 1.28L1020.58 1.28L1020.58 1.28Q1017.66 1.28 1015.30 0.51L1015.30 0.51L1015.30 0.51Q1012.93-0.26 1011.42-1.92ZM1024.93-27.90L1024.93-27.90L1024.93-27.90Q1024.19-26.75 1023.55-24.80L1023.55-24.80L1023.55-24.80Q1022.91-22.85 1021.86-17.63L1021.86-17.63L1021.86-17.63Q1020.80-12.42 1020.80-8.70L1020.80-8.70L1020.80-8.70Q1020.80-4.99 1021.38-3.90L1021.38-3.90L1021.38-3.90Q1021.95-2.82 1022.98-2.82L1022.98-2.82L1022.98-2.82Q1025.02-2.82 1026.53-4.77L1026.53-4.77L1026.53-4.77Q1028.03-6.72 1028.61-10.18L1028.61-10.18L1032-28.93L1032-28.93Q1030.66-30.08 1029.09-30.08L1029.09-30.08L1029.09-30.08Q1027.52-30.08 1026.59-29.57L1026.59-29.57L1026.59-29.57Q1025.66-29.06 1024.93-27.90ZM1068.86-17.98L1068.86-17.98L1068.86-17.98Q1071.17-22.08 1071.17-26.24L1071.17-26.24L1071.17-26.24Q1071.17-28.99 1069.18-28.99L1069.18-28.99L1069.18-28.99Q1067.65-28.99 1066.05-26.37L1066.05-26.37L1066.05-26.37Q1064.38-23.74 1063.87-20.35L1063.87-20.35L1060.54 0L1047.30 1.28L1053.82-32.64L1064.38-33.92L1063.23-27.46L1063.23-27.46Q1066.37-33.92 1073.41-33.92L1073.41-33.92L1073.41-33.92Q1077.12-33.92 1079.14-32L1079.14-32L1079.14-32Q1081.15-30.08 1081.15-26.14L1081.15-26.14L1081.15-26.14Q1081.15-22.21 1078.56-19.71L1078.56-19.71L1078.56-19.71Q1075.97-17.22 1071.55-17.22L1071.55-17.22L1071.55-17.22Q1069.63-17.22 1068.86-17.98ZM1083.20-6.40L1083.20-6.40L1083.20-6.40Q1083.20-8.13 1084.10-12.48L1084.10-12.48L1087.49-29.76L1083.71-29.76L1083.97-31.68L1083.97-31.68Q1091.65-33.98 1099.07-39.62L1099.07-39.62L1102.14-39.62L1100.61-32.64L1105.60-32.64L1105.02-29.76L1100.10-29.76L1096.83-12.48L1096.83-12.48Q1096-8.51 1096-7.17L1096-7.17L1096-7.17Q1096-4.10 1098.69-3.46L1098.69-3.46L1098.69-3.46Q1098.05-1.28 1095.74 0L1095.74 0L1095.74 0Q1093.44 1.28 1090.18 1.28L1090.18 1.28L1090.18 1.28Q1086.91 1.28 1085.06-0.77L1085.06-0.77L1085.06-0.77Q1083.20-2.82 1083.20-6.40ZM1137.60-22.46L1137.60-22.46L1137.60-22.46Q1138.50-24.83 1138.50-26.88L1138.50-26.88L1138.50-26.88Q1138.50-30.66 1135.42-30.66L1135.42-30.66L1135.42-30.66Q1133.82-30.66 1132.51-29.22L1132.51-29.22L1132.51-29.22Q1131.20-27.78 1131.20-25.98L1131.20-25.98L1131.20-25.98Q1131.20-24.70 1132.22-23.68L1132.22-23.68L1132.22-23.68Q1133.70-22.27 1137.47-19.97L1137.47-19.97L1137.47-19.97Q1141.25-17.66 1142.69-15.78L1142.69-15.78L1142.69-15.78Q1144.13-13.89 1144.13-11.30L1144.13-11.30L1144.13-11.30Q1144.13-8.70 1142.88-6.34L1142.88-6.34L1142.88-6.34Q1141.63-3.97 1139.39-2.30L1139.39-2.30L1139.39-2.30Q1134.59 1.28 1126.91 1.28L1126.91 1.28L1126.91 1.28Q1122.75 1.28 1119.55-0.90L1119.55-0.90L1119.55-0.90Q1116.35-3.01 1116.35-5.50L1116.35-5.50L1116.35-5.50Q1116.35-8 1118.18-9.47L1118.18-9.47L1118.18-9.47Q1120-10.94 1122.69-10.94L1122.69-10.94L1122.69-10.94Q1125.38-10.94 1127.04-9.92L1127.04-9.92L1127.04-9.92Q1126.21-7.81 1126.21-6.40L1126.21-6.40L1126.21-6.40Q1126.21-2.18 1129.79-2.18L1129.79-2.18L1129.79-2.18Q1131.33-2.18 1132.35-3.14L1132.35-3.14L1132.35-3.14Q1133.38-4.10 1133.38-5.76L1133.38-5.76L1133.38-5.76Q1133.38-9.02 1127.87-12.48L1127.87-12.48L1127.87-12.48Q1123.39-15.42 1122.37-16.58L1122.37-16.58L1122.37-16.58Q1120.64-18.62 1120.64-21.18L1120.64-21.18L1120.64-21.18Q1120.64-23.74 1121.86-26.18L1121.86-26.18L1121.86-26.18Q1123.07-28.61 1125.31-30.34L1125.31-30.34L1125.31-30.34Q1129.98-33.92 1138.11-33.92L1138.11-33.92L1138.11-33.92Q1142.27-33.92 1144.74-32.26L1144.74-32.26L1144.74-32.26Q1147.20-30.59 1147.20-27.78L1147.20-27.78L1147.20-27.78Q1147.20-24.96 1145.50-23.36L1145.50-23.36L1145.50-23.36Q1143.81-21.76 1140.74-21.76L1140.74-21.76L1140.74-21.76Q1138.62-21.76 1137.60-22.46ZM1175.49-10.82L1175.49-10.82L1175.49-10.82Q1177.09-9.73 1177.09-7.33L1177.09-7.33L1177.09-7.33Q1177.09-4.93 1175.87-3.39L1175.87-3.39L1175.87-3.39Q1174.66-1.86 1172.67-0.83L1172.67-0.83L1172.67-0.83Q1168.58 1.28 1164.16 1.28L1164.16 1.28L1164.16 1.28Q1159.74 1.28 1157.15 0.32L1157.15 0.32L1157.15 0.32Q1154.56-0.64 1152.83-2.43L1152.83-2.43L1152.83-2.43Q1149.44-5.82 1149.44-12.03L1149.44-12.03L1149.44-12.03Q1149.44-21.70 1154.69-27.58L1154.69-27.58L1154.69-27.58Q1160.32-33.92 1170.11-33.92L1170.11-33.92L1170.11-33.92Q1176.19-33.92 1179.20-31.36L1179.20-31.36L1179.20-31.36Q1181.44-29.44 1181.44-26.30L1181.44-26.30L1181.44-26.30Q1181.44-15.04 1161.98-15.04L1161.98-15.04L1161.98-15.04Q1161.73-13.38 1161.73-11.97L1161.73-11.97L1161.73-11.97Q1161.73-9.02 1163.04-7.90L1163.04-7.90L1163.04-7.90Q1164.35-6.78 1166.78-6.78L1166.78-6.78L1166.78-6.78Q1169.22-6.78 1171.81-7.90L1171.81-7.90L1171.81-7.90Q1174.40-9.02 1175.49-10.82ZM1162.43-17.79L1162.43-17.79L1162.43-17.79Q1166.98-17.79 1169.60-20.61L1169.60-20.61L1169.60-20.61Q1172.22-23.30 1172.22-27.58L1172.22-27.58L1172.22-27.58Q1172.22-29.06 1171.68-29.86L1171.68-29.86L1171.68-29.86Q1171.14-30.66 1170.05-30.66L1170.05-30.66L1170.05-30.66Q1168.96-30.66 1168.03-30.24L1168.03-30.24L1168.03-30.24Q1167.10-29.82 1166.14-28.42L1166.14-28.42L1166.14-28.42Q1163.78-25.22 1162.43-17.79ZM1186.40-1.92L1186.40-1.92L1186.40-1.92Q1184.90-3.58 1184.22-6.21L1184.22-6.21L1184.22-6.21Q1183.55-8.83 1183.55-13.12L1183.55-13.12L1183.55-13.12Q1183.55-17.41 1185.02-21.31L1185.02-21.31L1185.02-21.31Q1186.50-25.22 1189.18-28.03L1189.18-28.03L1189.18-28.03Q1194.69-33.92 1203.78-33.92L1203.78-33.92L1203.78-33.92Q1207.04-33.92 1209.41-32.83L1209.41-32.83L1220.35-33.92L1215.62-8.96L1215.62-8.96Q1215.42-8.19 1215.42-6.78L1215.42-6.78L1215.42-6.78Q1215.42-5.38 1216.29-4.48L1216.29-4.48L1216.29-4.48Q1217.15-3.58 1218.43-3.46L1218.43-3.46L1218.43-3.46Q1217.79-1.28 1215.46 0L1215.46 0L1215.46 0Q1213.12 1.28 1210.50 1.28L1210.50 1.28L1210.50 1.28Q1207.87 1.28 1206.11 0.29L1206.11 0.29L1206.11 0.29Q1204.35-0.70 1203.84-2.37L1203.84-2.37L1203.84-2.37Q1202.82-0.77 1200.64 0.26L1200.64 0.26L1200.64 0.26Q1198.46 1.28 1195.55 1.28L1195.55 1.28L1195.55 1.28Q1192.64 1.28 1190.27 0.51L1190.27 0.51L1190.27 0.51Q1187.90-0.26 1186.40-1.92ZM1199.90-27.90L1199.90-27.90L1199.90-27.90Q1199.17-26.75 1198.53-24.80L1198.53-24.80L1198.53-24.80Q1197.89-22.85 1196.83-17.63L1196.83-17.63L1196.83-17.63Q1195.78-12.42 1195.78-8.70L1195.78-8.70L1195.78-8.70Q1195.78-4.99 1196.35-3.90L1196.35-3.90L1196.35-3.90Q1196.93-2.82 1197.95-2.82L1197.95-2.82L1197.95-2.82Q1200-2.82 1201.50-4.77L1201.50-4.77L1201.50-4.77Q1203.01-6.72 1203.58-10.18L1203.58-10.18L1206.98-28.93L1206.98-28.93Q1205.63-30.08 1204.06-30.08L1204.06-30.08L1204.06-30.08Q1202.50-30.08 1201.57-29.57L1201.57-29.57L1201.57-29.57Q1200.64-29.06 1199.90-27.90ZM1243.84-17.98L1243.84-17.98L1243.84-17.98Q1246.14-22.08 1246.14-26.24L1246.14-26.24L1246.14-26.24Q1246.14-28.99 1244.16-28.99L1244.16-28.99L1244.16-28.99Q1242.62-28.99 1241.02-26.37L1241.02-26.37L1241.02-26.37Q1239.36-23.74 1238.85-20.35L1238.85-20.35L1235.52 0L1222.27 1.28L1228.80-32.64L1239.36-33.92L1238.21-27.46L1238.21-27.46Q1241.34-33.92 1248.38-33.92L1248.38-33.92L1248.38-33.92Q1252.10-33.92 1254.11-32L1254.11-32L1254.11-32Q1256.13-30.08 1256.13-26.14L1256.13-26.14L1256.13-26.14Q1256.13-22.21 1253.54-19.71L1253.54-19.71L1253.54-19.71Q1250.94-17.22 1246.53-17.22L1246.53-17.22L1246.53-17.22Q1244.61-17.22 1243.84-17.98ZM1288.58-26.62L1288.58-26.62L1288.58-26.62Q1288.58-23.94 1286.34-22.27L1286.34-22.27L1286.34-22.27Q1284.10-20.61 1280.45-20.61L1280.45-20.61L1280.45-20.61Q1278.91-20.61 1278.02-21.06L1278.02-21.06L1278.02-21.06Q1278.72-22.72 1278.94-24.80L1278.94-24.80L1278.94-24.80Q1279.17-26.88 1279.17-27.46L1279.17-27.46L1279.17-27.46Q1279.17-30.14 1277.31-30.14L1277.31-30.14L1277.31-30.14Q1276.03-30.14 1274.59-28.54L1274.59-28.54L1274.59-28.54Q1273.15-26.94 1271.94-24.45L1271.94-24.45L1271.94-24.45Q1269.25-18.69 1269.25-12.86L1269.25-12.86L1269.25-12.86Q1269.25-9.66 1270.46-8.22L1270.46-8.22L1270.46-8.22Q1271.68-6.78 1274.37-6.78L1274.37-6.78L1274.37-6.78Q1278.08-6.78 1281.02-9.86L1281.02-9.86L1281.02-9.86Q1281.86-10.82 1282.30-11.90L1282.30-11.90L1282.30-11.90Q1284.74-10.62 1284.74-7.10L1284.74-7.10L1284.74-7.10Q1284.74-3.52 1280.77-1.15L1280.77-1.15L1280.77-1.15Q1276.67 1.28 1270.14 1.28L1270.14 1.28L1270.14 1.28Q1257.15 1.28 1257.15-12.48L1257.15-12.48L1257.15-12.48Q1257.15-22.53 1262.85-28.29L1262.85-28.29L1262.85-28.29Q1268.35-33.92 1278.46-33.92L1278.46-33.92L1278.46-33.92Q1288.58-33.92 1288.58-26.62ZM1322.50-7.10L1322.50-7.10L1322.50-7.10Q1322.50-4.29 1325.38-3.46L1325.38-3.46L1325.38-3.46Q1324.67-1.09 1321.92 0.19L1321.92 0.19L1321.92 0.19Q1319.62 1.28 1317.09 1.28L1317.09 1.28L1317.09 1.28Q1314.56 1.28 1313.25 0.61L1313.25 0.61L1313.25 0.61Q1311.94-0.06 1311.23-1.15L1311.23-1.15L1311.23-1.15Q1310.08-2.82 1310.08-5.95L1310.08-5.95L1310.08-5.95Q1310.08-7.81 1311.10-12.93L1311.10-12.93L1312.00-17.79L1312.00-17.79Q1313.09-23.36 1313.09-25.41L1313.09-25.41L1313.09-25.41Q1313.09-28.99 1311.10-28.99L1311.10-28.99L1311.10-28.99Q1308.61-28.99 1307.01-25.34L1307.01-25.34L1307.01-25.34Q1306.37-23.94 1305.92-21.82L1305.92-21.82L1301.57 0L1288.70 1.28L1297.73-44.80L1310.59-46.08L1310.08-43.52L1310.08-43.52Q1308.29-33.66 1306.75-30.34L1306.75-30.34L1306.75-30.34Q1310.34-33.92 1316.93-33.92L1316.93-33.92L1316.93-33.92Q1323.90-33.92 1325.18-29.31L1325.18-29.31L1325.18-29.31Q1325.63-27.84 1325.63-26.56L1325.63-26.56L1325.63-26.56Q1325.63-25.28 1325.54-24.29L1325.54-24.29L1325.54-24.29Q1325.44-23.30 1325.12-21.50L1325.12-21.50L1324.29-16.90L1322.82-9.66L1322.82-9.66Q1322.50-8.19 1322.50-7.10ZM1345.92-3.52L1345.92-3.52L1345.92-3.52Q1343.94 1.28 1337.60 1.28L1337.60 1.28L1337.60 1.28Q1334.34 1.28 1332.29-0.96L1332.29-0.96L1332.29-0.96Q1330.56-2.94 1330.56-4.93L1330.56-4.93L1330.56-4.93Q1330.56-10.11 1332.93-20.22L1332.93-20.22L1335.30-32.64L1348.29-33.92L1344.38-13.70L1344.38-13.70Q1343.30-8.96 1343.30-7.30L1343.30-7.30L1343.30-7.30Q1343.30-3.65 1345.92-3.52ZM1336.45-41.54L1336.45-41.54L1336.45-41.54Q1336.45-44.03 1338.53-45.38L1338.53-45.38L1338.53-45.38Q1340.61-46.72 1343.62-46.72L1343.62-46.72L1343.62-46.72Q1346.62-46.72 1348.45-45.38L1348.45-45.38L1348.45-45.38Q1350.27-44.03 1350.27-41.54L1350.27-41.54L1350.27-41.54Q1350.27-39.04 1348.26-37.76L1348.26-37.76L1348.26-37.76Q1346.24-36.48 1343.23-36.48L1343.23-36.48L1343.23-36.48Q1340.22-36.48 1338.34-37.76L1338.34-37.76L1338.34-37.76Q1336.45-39.04 1336.45-41.54ZM1378.43 1.28L1378.43 1.28L1378.43 1.28Q1370.69 1.28 1370.69-4.74L1370.69-4.74L1370.69-4.74Q1370.75-6.40 1371.26-9.22L1371.26-9.22L1372.42-15.10L1372.42-15.10Q1374.14-23.42 1374.14-25.28L1374.14-25.28L1374.14-25.28Q1374.14-28.99 1371.97-28.99L1371.97-28.99L1371.97-28.99Q1368.32-28.99 1366.40-19.46L1366.40-19.46L1362.62 0L1349.76 1.28L1356.42-32.70L1366.91-33.92L1365.89-27.65L1365.89-27.65Q1368.90-33.92 1378.11-33.92L1378.11-33.92L1378.11-33.92Q1382.59-33.92 1384.48-32.03L1384.48-32.03L1384.48-32.03Q1386.37-30.14 1386.37-25.92L1386.37-25.92L1386.37-25.92Q1386.37-21.95 1384.32-12.67L1384.32-12.67L1384.32-12.67Q1383.36-8.51 1383.36-6.94L1383.36-6.94L1383.36-6.94Q1383.36-5.38 1384.22-4.48L1384.22-4.48L1384.22-4.48Q1385.09-3.58 1386.37-3.46L1386.37-3.46L1386.37-3.46Q1385.73-1.28 1383.52 0L1383.52 0L1383.52 0Q1381.31 1.28 1378.43 1.28ZM1396.03-26.75L1396.03-26.75L1396.03-26.75Q1398.21-29.82 1401.50-31.87L1401.50-31.87L1401.50-31.87Q1404.80-33.92 1408.83-33.92L1408.83-33.92L1408.83-33.92Q1412.86-33.92 1414.78-32.64L1414.78-32.64L1427.33-33.92L1422.98-9.34L1422.98-9.34Q1420.74 3.20 1416 8.13L1416 8.13L1416 8.13Q1411.46 12.80 1402.62 12.80L1402.62 12.80L1402.62 12.80Q1395.90 12.80 1392.06 10.69L1392.06 10.69L1392.06 10.69Q1388.22 8.58 1388.22 5.06L1388.22 5.06L1388.22 5.06Q1388.22 2.43 1390.21 0.93L1390.21 0.93L1390.21 0.93Q1392.19-0.58 1395.26-0.58L1395.26-0.58L1395.26-0.58Q1397.95-0.58 1400 0.64L1400 0.64L1400 0.64Q1401.22 1.28 1401.79 2.18L1401.79 2.18L1401.79 2.18Q1400.32 3.46 1400.32 5.57L1400.32 5.57L1400.32 5.57Q1400.32 8.32 1402.88 8.32L1402.88 8.32L1402.88 8.32Q1407.17 8.32 1409.60-1.79L1409.60-1.79L1409.60-1.79Q1410.30-4.54 1410.88-7.30L1410.88-7.30L1410.88-7.30Q1408-3.78 1401.47-3.78L1401.47-3.78L1401.47-3.78Q1396.93-3.78 1394.30-5.95L1394.30-5.95L1394.30-5.95Q1391.68-8.13 1391.68-13.25L1391.68-13.25L1391.68-13.25Q1391.68-16.45 1392.77-20.06L1392.77-20.06L1392.77-20.06Q1393.86-23.68 1396.03-26.75ZM1404.35-13.06L1404.35-13.06L1404.35-13.06Q1404.35-8.70 1406.59-8.70L1406.59-8.70L1406.59-8.70Q1408.13-8.70 1409.60-10.37L1409.60-10.37L1409.60-10.37Q1410.75-11.71 1411.20-13.70L1411.20-13.70L1414.46-30.14L1414.46-30.14Q1414.14-30.21 1413.82-30.34L1413.82-30.34L1413.82-30.34Q1413.18-30.59 1412.35-30.59L1412.35-30.59L1412.35-30.59Q1408.45-30.59 1406.14-24.19L1406.14-24.19L1406.14-24.19Q1404.35-19.20 1404.35-13.06ZM1441.28-3.78L1441.28-3.78L1441.28-3.78Q1441.28-6.21 1443.10-7.52L1443.10-7.52L1443.10-7.52Q1444.93-8.83 1447.62-8.83L1447.62-8.83L1447.62-8.83Q1450.30-8.83 1452-7.52L1452-7.52L1452-7.52Q1453.70-6.21 1453.70-3.78L1453.70-3.78L1453.70-3.78Q1453.70-1.34 1451.81 0L1451.81 0L1451.81 0Q1449.92 1.34 1447.23 1.34L1447.23 1.34L1447.23 1.34Q1444.54 1.34 1442.91 0L1442.91 0L1442.91 0Q1441.28-1.34 1441.28-3.78ZM1444.74-15.81L1444.74-15.81L1444.74-15.81Q1444.74-16.26 1444.86-16.90L1444.86-16.90L1449.86-42.62L1449.86-42.62Q1452.22-43.52 1455.04-43.52L1455.04-43.52L1455.04-43.52Q1457.86-43.52 1459.33-41.73L1459.33-41.73L1459.33-41.73Q1460.80-39.94 1460.80-37.28L1460.80-37.28L1460.80-37.28Q1460.80-34.62 1459.78-31.65L1459.78-31.65L1459.78-31.65Q1458.75-28.67 1457.50-25.66L1457.50-25.66L1457.50-25.66Q1456.26-22.66 1455.20-19.55L1455.20-19.55L1455.20-19.55Q1454.14-16.45 1454.08-13.18L1454.08-13.18L1454.08-13.18Q1452.61-11.52 1450.05-11.52L1450.05-11.52L1450.05-11.52Q1447.49-11.52 1446.11-12.70L1446.11-12.70L1446.11-12.70Q1444.74-13.89 1444.74-15.81Z" fill="#c5c5c5"></path></g></g><style>text {
  font-size: 64px;
  font-family: Arial Black;
  dominant-baseline: central;
  text-anchor: middle;
}</style></svg>