<svg width="638.5237548828125px" height="122.021240234375px" xmlns="http://www.w3.org/2000/svg" viewBox="-69.26187744140623 13.9893798828125 638.5237548828125 122.021240234375" style="background: rgba(0, 0, 0, 0);" preserveAspectRatio="xMidYMid"><defs><filter id="editing-extrusion" x="-100%" y="-100%" width="300%" height="300%"><feFlood result="color1" flood-color="#444444"></feFlood><feConvolveMatrix order="8,8" divisor="1" kernelMatrix="1 0 0 0 0 0 0 0 0 1 0 0 0 0 0 0 0 0 1 0 0 0 0 0 0 0 0 1 0 0 0 0 0 0 0 0 1 0 0 0 0 0 0 0 0 1 0 0 0 0 0 0 0 0 1 0 0 0 0 0 0 0 0 1" in="SourceAlpha" result="extrude"></feConvolveMatrix><feComposite in="color1" in2="extrude" result="comp-extrude" operator="in"></feComposite><feOffset dx="4" dy="4" in="comp-extrude" result="offset-extrude"></feOffset><feMerge><feMergeNode in="offset-extrude"></feMergeNode><feMergeNode in="SourceGraphic"></feMergeNode></feMerge></filter></defs><g filter="url(#editing-extrusion)"><g transform="translate(24.048444867134094, 104.75218772888184)"><path d="M6.53 0L-0.83 0L10.75-42.24L24.13-42.24L27.07-18.11L38.98-42.24L50.18-42.24L51.33-10.62L51.33-10.62Q51.58-4.35 54.66-2.43L54.66-2.43L54.66-2.43Q53.95-1.15 51.90 0.06L51.90 0.06L51.90 0.06Q49.86 1.28 47.14 1.28L47.14 1.28L47.14 1.28Q44.42 1.28 42.82 0.51L42.82 0.51L42.82 0.51Q41.22-0.26 40.32-1.54L40.32-1.54L40.32-1.54Q38.72-3.84 38.72-8.26L38.72-8.26L38.72-28.03L26.11 0L18.18 0L13.70-28.74L6.53 0ZM72.77-3.52L72.77-3.52L72.77-3.52Q70.78 1.28 64.45 1.28L64.45 1.28L64.45 1.28Q61.18 1.28 59.14-0.96L59.14-0.96L59.14-0.96Q57.41-2.94 57.41-4.93L57.41-4.93L57.41-4.93Q57.41-10.11 59.78-20.22L59.78-20.22L62.14-32.64L75.14-33.92L71.23-13.70L71.23-13.70Q70.14-8.96 70.14-7.30L70.14-7.30L70.14-7.30Q70.14-3.65 72.77-3.52ZM63.30-41.54L63.30-41.54L63.30-41.54Q63.30-44.03 65.38-45.38L65.38-45.38L65.38-45.38Q67.46-46.72 70.46-46.72L70.46-46.72L70.46-46.72Q73.47-46.72 75.30-45.38L75.30-45.38L75.30-45.38Q77.12-44.03 77.12-41.54L77.12-41.54L77.12-41.54Q77.12-39.04 75.10-37.76L75.10-37.76L75.10-37.76Q73.09-36.48 70.08-36.48L70.08-36.48L70.08-36.48Q67.07-36.48 65.18-37.76L65.18-37.76L65.18-37.76Q63.30-39.04 63.30-41.54ZM97.34-22.46L97.34-22.46L97.34-22.46Q98.24-24.83 98.24-26.88L98.24-26.88L98.24-26.88Q98.24-30.66 95.17-30.66L95.17-30.66L95.17-30.66Q93.57-30.66 92.26-29.22L92.26-29.22L92.26-29.22Q90.94-27.78 90.94-25.98L90.94-25.98L90.94-25.98Q90.94-24.70 91.97-23.68L91.97-23.68L91.97-23.68Q93.44-22.27 97.22-19.97L97.22-19.97L97.22-19.97Q100.99-17.66 102.43-15.78L102.43-15.78L102.43-15.78Q103.87-13.89 103.87-11.30L103.87-11.30L103.87-11.30Q103.87-8.70 102.62-6.34L102.62-6.34L102.62-6.34Q101.38-3.97 99.14-2.30L99.14-2.30L99.14-2.30Q94.34 1.28 86.66 1.28L86.66 1.28L86.66 1.28Q82.50 1.28 79.30-0.90L79.30-0.90L79.30-0.90Q76.10-3.01 76.10-5.50L76.10-5.50L76.10-5.50Q76.10-8 77.92-9.47L77.92-9.47L77.92-9.47Q79.74-10.94 82.43-10.94L82.43-10.94L82.43-10.94Q85.12-10.94 86.78-9.92L86.78-9.92L86.78-9.92Q85.95-7.81 85.95-6.40L85.95-6.40L85.95-6.40Q85.95-2.18 89.54-2.18L89.54-2.18L89.54-2.18Q91.07-2.18 92.10-3.14L92.10-3.14L92.10-3.14Q93.12-4.10 93.12-5.76L93.12-5.76L93.12-5.76Q93.12-9.02 87.62-12.48L87.62-12.48L87.62-12.48Q83.14-15.42 82.11-16.58L82.11-16.58L82.11-16.58Q80.38-18.62 80.38-21.18L80.38-21.18L80.38-21.18Q80.38-23.74 81.60-26.18L81.60-26.18L81.60-26.18Q82.82-28.61 85.06-30.34L85.06-30.34L85.06-30.34Q89.73-33.92 97.86-33.92L97.86-33.92L97.86-33.92Q102.02-33.92 104.48-32.26L104.48-32.26L104.48-32.26Q106.94-30.59 106.94-27.78L106.94-27.78L106.94-27.78Q106.94-24.96 105.25-23.36L105.25-23.36L105.25-23.36Q103.55-21.76 100.48-21.76L100.48-21.76L100.48-21.76Q98.37-21.76 97.34-22.46ZM128.45-22.46L128.45-22.46L128.45-22.46Q129.34-24.83 129.34-26.88L129.34-26.88L129.34-26.88Q129.34-30.66 126.27-30.66L126.27-30.66L126.27-30.66Q124.67-30.66 123.36-29.22L123.36-29.22L123.36-29.22Q122.05-27.78 122.05-25.98L122.05-25.98L122.05-25.98Q122.05-24.70 123.07-23.68L123.07-23.68L123.07-23.68Q124.54-22.27 128.32-19.97L128.32-19.97L128.32-19.97Q132.10-17.66 133.54-15.78L133.54-15.78L133.54-15.78Q134.98-13.89 134.98-11.30L134.98-11.30L134.98-11.30Q134.98-8.70 133.73-6.34L133.73-6.34L133.73-6.34Q132.48-3.97 130.24-2.30L130.24-2.30L130.24-2.30Q125.44 1.28 117.76 1.28L117.76 1.28L117.76 1.28Q113.60 1.28 110.40-0.90L110.40-0.90L110.40-0.90Q107.20-3.01 107.20-5.50L107.20-5.50L107.20-5.50Q107.20-8 109.02-9.47L109.02-9.47L109.02-9.47Q110.85-10.94 113.54-10.94L113.54-10.94L113.54-10.94Q116.22-10.94 117.89-9.92L117.89-9.92L117.89-9.92Q117.06-7.81 117.06-6.40L117.06-6.40L117.06-6.40Q117.06-2.18 120.64-2.18L120.64-2.18L120.64-2.18Q122.18-2.18 123.20-3.14L123.20-3.14L123.20-3.14Q124.22-4.10 124.22-5.76L124.22-5.76L124.22-5.76Q124.22-9.02 118.72-12.48L118.72-12.48L118.72-12.48Q114.24-15.42 113.22-16.58L113.22-16.58L113.22-16.58Q111.49-18.62 111.49-21.18L111.49-21.18L111.49-21.18Q111.49-23.74 112.70-26.18L112.70-26.18L112.70-26.18Q113.92-28.61 116.16-30.34L116.16-30.34L116.16-30.34Q120.83-33.92 128.96-33.92L128.96-33.92L128.96-33.92Q133.12-33.92 135.58-32.26L135.58-32.26L135.58-32.26Q138.05-30.59 138.05-27.78L138.05-27.78L138.05-27.78Q138.05-24.96 136.35-23.36L136.35-23.36L136.35-23.36Q134.66-21.76 131.58-21.76L131.58-21.76L131.58-21.76Q129.47-21.76 128.45-22.46ZM155.78-3.52L155.78-3.52L155.78-3.52Q153.79 1.28 147.46 1.28L147.46 1.28L147.46 1.28Q144.19 1.28 142.14-0.96L142.14-0.96L142.14-0.96Q140.42-2.94 140.42-4.93L140.42-4.93L140.42-4.93Q140.42-10.11 142.78-20.22L142.78-20.22L145.15-32.64L158.14-33.92L154.24-13.70L154.24-13.70Q153.15-8.96 153.15-7.30L153.15-7.30L153.15-7.30Q153.15-3.65 155.78-3.52ZM146.30-41.54L146.30-41.54L146.30-41.54Q146.30-44.03 148.38-45.38L148.38-45.38L148.38-45.38Q150.46-46.72 153.47-46.72L153.47-46.72L153.47-46.72Q156.48-46.72 158.30-45.38L158.30-45.38L158.30-45.38Q160.13-44.03 160.13-41.54L160.13-41.54L160.13-41.54Q160.13-39.04 158.11-37.76L158.11-37.76L158.11-37.76Q156.10-36.48 153.09-36.48L153.09-36.48L153.09-36.48Q150.08-36.48 148.19-37.76L148.19-37.76L148.19-37.76Q146.30-39.04 146.30-41.54ZM188.29 1.28L188.29 1.28L188.29 1.28Q180.54 1.28 180.54-4.74L180.54-4.74L180.54-4.74Q180.61-6.40 181.12-9.22L181.12-9.22L182.27-15.10L182.27-15.10Q184-23.42 184-25.28L184-25.28L184-25.28Q184-28.99 181.82-28.99L181.82-28.99L181.82-28.99Q178.18-28.99 176.26-19.46L176.26-19.46L172.48 0L159.62 1.28L166.27-32.70L176.77-33.92L175.74-27.65L175.74-27.65Q178.75-33.92 187.97-33.92L187.97-33.92L187.97-33.92Q192.45-33.92 194.34-32.03L194.34-32.03L194.34-32.03Q196.22-30.14 196.22-25.92L196.22-25.92L196.22-25.92Q196.22-21.95 194.18-12.67L194.18-12.67L194.18-12.67Q193.22-8.51 193.22-6.94L193.22-6.94L193.22-6.94Q193.22-5.38 194.08-4.48L194.08-4.48L194.08-4.48Q194.94-3.58 196.22-3.46L196.22-3.46L196.22-3.46Q195.58-1.28 193.38 0L193.38 0L193.38 0Q191.17 1.28 188.29 1.28ZM205.89-26.75L205.89-26.75L205.89-26.75Q208.06-29.82 211.36-31.87L211.36-31.87L211.36-31.87Q214.66-33.92 218.69-33.92L218.69-33.92L218.69-33.92Q222.72-33.92 224.64-32.64L224.64-32.64L237.18-33.92L232.83-9.34L232.83-9.34Q230.59 3.20 225.86 8.13L225.86 8.13L225.86 8.13Q221.31 12.80 212.48 12.80L212.48 12.80L212.48 12.80Q205.76 12.80 201.92 10.69L201.92 10.69L201.92 10.69Q198.08 8.58 198.08 5.06L198.08 5.06L198.08 5.06Q198.08 2.43 200.06 0.93L200.06 0.93L200.06 0.93Q202.05-0.58 205.12-0.58L205.12-0.58L205.12-0.58Q207.81-0.58 209.86 0.64L209.86 0.64L209.86 0.64Q211.07 1.28 211.65 2.18L211.65 2.18L211.65 2.18Q210.18 3.46 210.18 5.57L210.18 5.57L210.18 5.57Q210.18 8.32 212.74 8.32L212.74 8.32L212.74 8.32Q217.02 8.32 219.46-1.79L219.46-1.79L219.46-1.79Q220.16-4.54 220.74-7.30L220.74-7.30L220.74-7.30Q217.86-3.78 211.33-3.78L211.33-3.78L211.33-3.78Q206.78-3.78 204.16-5.95L204.16-5.95L204.16-5.95Q201.54-8.13 201.54-13.25L201.54-13.25L201.54-13.25Q201.54-16.45 202.62-20.06L202.62-20.06L202.62-20.06Q203.71-23.68 205.89-26.75ZM214.21-13.06L214.21-13.06L214.21-13.06Q214.21-8.70 216.45-8.70L216.45-8.70L216.45-8.70Q217.98-8.70 219.46-10.37L219.46-10.37L219.46-10.37Q220.61-11.71 221.06-13.70L221.06-13.70L224.32-30.14L224.32-30.14Q224.00-30.21 223.68-30.34L223.68-30.34L223.68-30.34Q223.04-30.59 222.21-30.59L222.21-30.59L222.21-30.59Q218.30-30.59 216.00-24.19L216.00-24.19L216.00-24.19Q214.21-19.20 214.21-13.06ZM277.89-42.69L277.89-42.69L277.89-42.69Q293.57-42.69 293.57-31.62L293.57-31.62L293.57-31.62Q293.57-25.54 289.66-21.89L289.66-21.89L289.66-21.89Q285.82-18.24 279.10-18.24L279.10-18.24L279.10-18.24Q275.97-18.24 273.54-20.03L273.54-20.03L273.54-20.03Q272.38-20.80 271.62-21.82L271.62-21.82L271.62-21.82Q276.29-21.82 278.75-24.67L278.75-24.67L278.75-24.67Q281.22-27.52 281.22-33.09L281.22-33.09L281.22-33.09Q281.22-38.66 275.71-38.66L275.71-38.66L274.18-38.66L274.18-38.66Q273.79-38.66 273.47-38.59L273.47-38.59L266.11 0L252.22 0L260.10-41.92L260.10-41.92Q266.94-42.56 270.91-42.62L270.91-42.62L270.91-42.62Q274.88-42.69 277.89-42.69ZM307.84 1.28L307.84 1.28L307.84 1.28Q293.76 1.28 293.76-11.97L293.76-11.97L293.76-11.97Q293.76-21.38 298.94-27.46L298.94-27.46L298.94-27.46Q304.45-33.92 313.98-33.92L313.98-33.92L313.98-33.92Q320.90-33.92 324.42-30.72L324.42-30.72L324.42-30.72Q327.94-27.52 327.94-20.80L327.94-20.80L327.94-20.80Q327.94-10.56 322.43-4.61L322.43-4.61L322.43-4.61Q317.06 1.28 307.84 1.28ZM309.50-26.56L309.50-26.56L309.50-26.56Q308.74-24.83 308.13-22.24L308.13-22.24L308.13-22.24Q307.52-19.65 306.75-15.55L306.75-15.55L306.75-15.55Q305.98-11.46 305.98-6.40L305.98-6.40L305.98-6.40Q305.98-4.74 306.53-3.65L306.53-3.65L306.53-3.65Q307.07-2.56 308.54-2.56L308.54-2.56L308.54-2.56Q310.02-2.56 310.94-3.26L310.94-3.26L310.94-3.26Q311.87-3.97 312.58-5.63L312.58-5.63L312.58-5.63Q313.86-8.58 314.88-14.05L314.88-14.05L314.88-14.05Q315.90-19.52 316.00-21.89L316.00-21.89L316.00-21.89Q316.10-24.26 316.10-26.02L316.10-26.02L316.10-26.02Q316.10-27.78 315.58-28.93L315.58-28.93L315.58-28.93Q315.07-30.08 313.63-30.08L313.63-30.08L313.63-30.08Q312.19-30.08 311.23-29.18L311.23-29.18L311.23-29.18Q310.27-28.29 309.50-26.56ZM350.85-22.46L350.85-22.46L350.85-22.46Q351.74-24.83 351.74-26.88L351.74-26.88L351.74-26.88Q351.74-30.66 348.67-30.66L348.67-30.66L348.67-30.66Q347.07-30.66 345.76-29.22L345.76-29.22L345.76-29.22Q344.45-27.78 344.45-25.98L344.45-25.98L344.45-25.98Q344.45-24.70 345.47-23.68L345.47-23.68L345.47-23.68Q346.94-22.27 350.72-19.97L350.72-19.97L350.72-19.97Q354.50-17.66 355.94-15.78L355.94-15.78L355.94-15.78Q357.38-13.89 357.38-11.30L357.38-11.30L357.38-11.30Q357.38-8.70 356.13-6.34L356.13-6.34L356.13-6.34Q354.88-3.97 352.64-2.30L352.64-2.30L352.64-2.30Q347.84 1.28 340.16 1.28L340.16 1.28L340.16 1.28Q336.00 1.28 332.80-0.90L332.80-0.90L332.80-0.90Q329.60-3.01 329.60-5.50L329.60-5.50L329.60-5.50Q329.60-8 331.42-9.47L331.42-9.47L331.42-9.47Q333.25-10.94 335.94-10.94L335.94-10.94L335.94-10.94Q338.62-10.94 340.29-9.92L340.29-9.92L340.29-9.92Q339.46-7.81 339.46-6.40L339.46-6.40L339.46-6.40Q339.46-2.18 343.04-2.18L343.04-2.18L343.04-2.18Q344.58-2.18 345.60-3.14L345.60-3.14L345.60-3.14Q346.62-4.10 346.62-5.76L346.62-5.76L346.62-5.76Q346.62-9.02 341.12-12.48L341.12-12.48L341.12-12.48Q336.64-15.42 335.62-16.58L335.62-16.58L335.62-16.58Q333.89-18.62 333.89-21.18L333.89-21.18L333.89-21.18Q333.89-23.74 335.10-26.18L335.10-26.18L335.10-26.18Q336.32-28.61 338.56-30.34L338.56-30.34L338.56-30.34Q343.23-33.92 351.36-33.92L351.36-33.92L351.36-33.92Q355.52-33.92 357.98-32.26L357.98-32.26L357.98-32.26Q360.45-30.59 360.45-27.78L360.45-27.78L360.45-27.78Q360.45-24.96 358.75-23.36L358.75-23.36L358.75-23.36Q357.06-21.76 353.98-21.76L353.98-21.76L353.98-21.76Q351.87-21.76 350.85-22.46ZM363.84-6.40L363.84-6.40L363.84-6.40Q363.84-8.13 364.74-12.48L364.74-12.48L368.13-29.76L364.35-29.76L364.61-31.68L364.61-31.68Q372.29-33.98 379.71-39.62L379.71-39.62L382.78-39.62L381.25-32.64L386.24-32.64L385.66-29.76L380.74-29.76L377.47-12.48L377.47-12.48Q376.64-8.51 376.64-7.17L376.64-7.17L376.64-7.17Q376.64-4.10 379.33-3.46L379.33-3.46L379.33-3.46Q378.69-1.28 376.38 0L376.38 0L376.38 0Q374.08 1.28 370.82 1.28L370.82 1.28L370.82 1.28Q367.55 1.28 365.70-0.77L365.70-0.77L365.70-0.77Q363.84-2.82 363.84-6.40ZM411.58-10.82L411.58-10.82L411.58-10.82Q413.18-9.73 413.18-7.33L413.18-7.33L413.18-7.33Q413.18-4.93 411.97-3.39L411.97-3.39L411.97-3.39Q410.75-1.86 408.77-0.83L408.77-0.83L408.77-0.83Q404.67 1.28 400.26 1.28L400.26 1.28L400.26 1.28Q395.84 1.28 393.25 0.32L393.25 0.32L393.25 0.32Q390.66-0.64 388.93-2.43L388.93-2.43L388.93-2.43Q385.54-5.82 385.54-12.03L385.54-12.03L385.54-12.03Q385.54-21.70 390.78-27.58L390.78-27.58L390.78-27.58Q396.42-33.92 406.21-33.92L406.21-33.92L406.21-33.92Q412.29-33.92 415.30-31.36L415.30-31.36L415.30-31.36Q417.54-29.44 417.54-26.30L417.54-26.30L417.54-26.30Q417.54-15.04 398.08-15.04L398.08-15.04L398.08-15.04Q397.82-13.38 397.82-11.97L397.82-11.97L397.82-11.97Q397.82-9.02 399.14-7.90L399.14-7.90L399.14-7.90Q400.45-6.78 402.88-6.78L402.88-6.78L402.88-6.78Q405.31-6.78 407.90-7.90L407.90-7.90L407.90-7.90Q410.50-9.02 411.58-10.82ZM398.53-17.79L398.53-17.79L398.53-17.79Q403.07-17.79 405.70-20.61L405.70-20.61L405.70-20.61Q408.32-23.30 408.32-27.58L408.32-27.58L408.32-27.58Q408.32-29.06 407.78-29.86L407.78-29.86L407.78-29.86Q407.23-30.66 406.14-30.66L406.14-30.66L406.14-30.66Q405.06-30.66 404.13-30.24L404.13-30.24L404.13-30.24Q403.20-29.82 402.24-28.42L402.24-28.42L402.24-28.42Q399.87-25.22 398.53-17.79ZM439.74-17.98L439.74-17.98L439.74-17.98Q442.05-22.08 442.05-26.24L442.05-26.24L442.05-26.24Q442.05-28.99 440.06-28.99L440.06-28.99L440.06-28.99Q438.53-28.99 436.93-26.37L436.93-26.37L436.93-26.37Q435.26-23.74 434.75-20.35L434.75-20.35L431.42 0L418.18 1.28L424.70-32.64L435.26-33.92L434.11-27.46L434.11-27.46Q437.25-33.92 444.29-33.92L444.29-33.92L444.29-33.92Q448.00-33.92 450.02-32L450.02-32L450.02-32Q452.03-30.08 452.03-26.14L452.03-26.14L452.03-26.14Q452.03-22.21 449.44-19.71L449.44-19.71L449.44-19.71Q446.85-17.22 442.43-17.22L442.43-17.22L442.43-17.22Q440.51-17.22 439.74-17.98Z" fill="#c5c5c5"></path></g></g><style>text {
  font-size: 64px;
  font-family: Arial Black;
  dominant-baseline: central;
  text-anchor: middle;
}</style></svg>