<svg width="728.53876953125px" height="122.021240234375px" xmlns="http://www.w3.org/2000/svg" viewBox="-114.26938476562498 13.9893798828125 728.53876953125 122.021240234375" style="background: rgba(0, 0, 0, 0);" preserveAspectRatio="xMidYMid"><defs><filter id="editing-extrusion" x="-100%" y="-100%" width="300%" height="300%"><feFlood result="color1" flood-color="#444"></feFlood><feConvolveMatrix order="8,8" divisor="1" kernelMatrix="1 0 0 0 0 0 0 0 0 1 0 0 0 0 0 0 0 0 1 0 0 0 0 0 0 0 0 1 0 0 0 0 0 0 0 0 1 0 0 0 0 0 0 0 0 1 0 0 0 0 0 0 0 0 1 0 0 0 0 0 0 0 0 1" in="SourceAlpha" result="extrude"></feConvolveMatrix><feComposite in="color1" in2="extrude" result="comp-extrude" operator="in"></feComposite><feOffset dx="4" dy="4" in="comp-extrude" result="offset-extrude"></feOffset><feMerge><feMergeNode in="offset-extrude"></feMergeNode><feMergeNode in="SourceGraphic"></feMergeNode></feMerge></filter></defs><g filter="url(#editing-extrusion)"><g transform="translate(-9.28282344341278, 104.78218841552734)"><path d="M6.53 0L-0.83 0L10.75-42.24L24.13-42.24L27.07-18.11L38.98-42.24L50.18-42.24L51.33-10.62L51.33-10.62Q51.58-4.35 54.66-2.43L54.66-2.43L54.66-2.43Q53.95-1.15 51.90 0.06L51.90 0.06L51.90 0.06Q49.86 1.28 47.14 1.28L47.14 1.28L47.14 1.28Q44.42 1.28 42.82 0.51L42.82 0.51L42.82 0.51Q41.22-0.26 40.32-1.54L40.32-1.54L40.32-1.54Q38.72-3.84 38.72-8.26L38.72-8.26L38.72-28.03L26.11 0L18.18 0L13.70-28.74L6.53 0ZM77.76-7.23L77.76-7.23L77.76-7.23Q74.43-3.78 68.35-3.78L68.35-3.78L68.35-3.78Q60.74-3.78 59.14-9.34L59.14-9.34L59.14-9.34Q58.62-11.01 58.62-12.86L58.62-12.86L58.62-12.86Q58.62-14.72 59.01-16.64L59.01-16.64L62.02-32.64L75.01-33.92L71.49-15.30L71.49-15.30Q71.36-14.46 71.17-13.57L71.17-13.57L71.17-13.57Q70.98-12.67 70.98-11.74L70.98-11.74L70.98-11.74Q70.98-10.82 71.30-10.21L71.30-10.21L71.30-10.21Q71.62-9.60 72.06-9.22L72.06-9.22L72.06-9.22Q72.83-8.70 74.21-8.70L74.21-8.70L74.21-8.70Q75.58-8.70 76.77-10.37L76.77-10.37L76.77-10.37Q77.95-12.03 78.53-14.91L78.53-14.91L82.05-32.64L94.66-33.92L89.86-8.77L89.86-8.77Q87.49 3.52 82.62 8.38L82.62 8.38L82.62 8.38Q80.13 10.88 76.90 11.87L76.90 11.87L76.90 11.87Q73.66 12.86 69.50 12.86L69.50 12.86L69.50 12.86Q62.78 12.86 58.94 10.75L58.94 10.75L58.94 10.75Q55.10 8.64 55.10 5.12L55.10 5.12L55.10 5.12Q55.10 2.50 57.09 0.99L57.09 0.99L57.09 0.99Q59.07-0.51 62.14-0.51L62.14-0.51L62.14-0.51Q64.83-0.51 66.88 0.64L66.88 0.64L66.88 0.64Q68.10 1.34 68.67 2.24L68.67 2.24L68.67 2.24Q67.20 3.52 67.20 5.63L67.20 5.63L67.20 5.63Q67.20 8.45 69.76 8.45L69.76 8.45L69.76 8.45Q73.98 8.45 76.42-1.28L76.42-1.28L76.42-1.28Q77.12-4.16 77.76-7.23ZM137.22 1.28L137.22 1.28L137.22 1.28Q129.47 1.28 129.47-4.74L129.47-4.74L129.47-4.74Q129.54-6.40 130.05-9.22L130.05-9.22L131.20-15.10L131.20-15.10Q132.93-23.42 132.93-25.28L132.93-25.28L132.93-25.28Q132.93-28.99 130.75-28.99L130.75-28.99L130.75-28.99Q127.10-28.99 125.18-19.46L125.18-19.46L121.41 0L108.54 1.28L115.20-32.70L125.70-33.92L124.67-27.65L124.67-27.65Q127.68-33.92 136.90-33.92L136.90-33.92L136.90-33.92Q141.38-33.92 143.26-32.03L143.26-32.03L143.26-32.03Q145.15-30.14 145.15-25.92L145.15-25.92L145.15-25.92Q145.15-21.95 143.10-12.67L143.10-12.67L143.10-12.67Q142.14-8.51 142.14-6.94L142.14-6.94L142.14-6.94Q142.14-5.38 143.01-4.48L143.01-4.48L143.01-4.48Q143.87-3.58 145.15-3.46L145.15-3.46L145.15-3.46Q144.51-1.28 142.30 0L142.30 0L142.30 0Q140.10 1.28 137.22 1.28ZM164.22 1.28L164.22 1.28L164.22 1.28Q150.14 1.28 150.14-11.97L150.14-11.97L150.14-11.97Q150.14-21.38 155.33-27.46L155.33-27.46L155.33-27.46Q160.83-33.92 170.37-33.92L170.37-33.92L170.37-33.92Q177.28-33.92 180.80-30.72L180.80-30.72L180.80-30.72Q184.32-27.52 184.32-20.80L184.32-20.80L184.32-20.80Q184.32-10.56 178.82-4.61L178.82-4.61L178.82-4.61Q173.44 1.28 164.22 1.28ZM165.89-26.56L165.89-26.56L165.89-26.56Q165.12-24.83 164.51-22.24L164.51-22.24L164.51-22.24Q163.90-19.65 163.14-15.55L163.14-15.55L163.14-15.55Q162.37-11.46 162.37-6.40L162.37-6.40L162.37-6.40Q162.37-4.74 162.91-3.65L162.91-3.65L162.91-3.65Q163.46-2.56 164.93-2.56L164.93-2.56L164.93-2.56Q166.40-2.56 167.33-3.26L167.33-3.26L167.33-3.26Q168.26-3.97 168.96-5.63L168.96-5.63L168.96-5.63Q170.24-8.58 171.26-14.05L171.26-14.05L171.26-14.05Q172.29-19.52 172.38-21.89L172.38-21.89L172.38-21.89Q172.48-24.26 172.48-26.02L172.48-26.02L172.48-26.02Q172.48-27.78 171.97-28.93L171.97-28.93L171.97-28.93Q171.46-30.08 170.02-30.08L170.02-30.08L170.02-30.08Q168.58-30.08 167.62-29.18L167.62-29.18L167.62-29.18Q166.66-28.29 165.89-26.56ZM234.18 1.28L234.18 1.28L234.18 1.28Q226.43 1.28 226.43-4.74L226.43-4.74L226.43-4.74Q226.43-7.36 227.55-12.45L227.55-12.45L227.55-12.45Q228.67-17.54 229.06-19.58L229.06-19.58L229.06-19.58Q229.95-24.26 229.95-25.73L229.95-25.73L229.95-25.73Q229.95-28.99 227.52-28.99L227.52-28.99L227.52-28.99Q225.92-28.99 224.38-26.78L224.38-26.78L224.38-26.78Q222.85-24.58 222.14-20.16L222.14-20.16L218.18 0L205.70 1.28L209.15-16.13L209.15-16.13Q209.73-19.01 210.24-22.27L210.24-22.27L210.24-22.27Q210.75-25.54 210.75-26.05L210.75-26.05L210.75-26.05Q210.75-28.99 208.58-28.99L208.58-28.99L208.58-28.99Q207.10-28.99 205.50-26.82L205.50-26.82L205.50-26.82Q203.90-24.64 203.01-20.16L203.01-20.16L199.10 0L186.50 1.28L193.22-32.64L203.65-33.92L202.56-27.46L202.56-27.46Q204.22-30.91 207.30-32.42L207.30-32.42L207.30-32.42Q210.37-33.92 215.17-33.92L215.17-33.92L215.17-33.92Q217.92-33.92 219.71-32.58L219.71-32.58L219.71-32.58Q221.50-31.23 222.08-29.06L222.08-29.06L222.08-29.06Q223.17-31.30 225.95-32.61L225.95-32.61L225.95-32.61Q228.74-33.92 232.16-33.92L232.16-33.92L232.16-33.92Q235.58-33.92 237.28-33.18L237.28-33.18L237.28-33.18Q238.98-32.45 240-31.23L240-31.23L240-31.23Q241.73-28.99 241.73-24.90L241.73-24.90L241.73-24.90Q241.73-20.86 240-12.48L240-12.48L240-12.48Q239.10-8.38 239.10-6.88L239.10-6.88L239.10-6.88Q239.10-5.38 239.97-4.48L239.97-4.48L239.97-4.48Q240.83-3.58 242.11-3.46L242.11-3.46L242.11-3.46Q241.47-1.28 239.26 0L239.26 0L239.26 0Q237.06 1.28 234.18 1.28ZM262.40-3.52L262.40-3.52L262.40-3.52Q260.42 1.28 254.08 1.28L254.08 1.28L254.08 1.28Q250.82 1.28 248.77-0.96L248.77-0.96L248.77-0.96Q247.04-2.94 247.04-4.93L247.04-4.93L247.04-4.93Q247.04-10.11 249.41-20.22L249.41-20.22L251.78-32.64L264.77-33.92L260.86-13.70L260.86-13.70Q259.78-8.96 259.78-7.30L259.78-7.30L259.78-7.30Q259.78-3.65 262.40-3.52ZM252.93-41.54L252.93-41.54L252.93-41.54Q252.93-44.03 255.01-45.38L255.01-45.38L255.01-45.38Q257.09-46.72 260.10-46.72L260.10-46.72L260.10-46.72Q263.10-46.72 264.93-45.38L264.93-45.38L264.93-45.38Q266.75-44.03 266.75-41.54L266.75-41.54L266.75-41.54Q266.75-39.04 264.74-37.76L264.74-37.76L264.74-37.76Q262.72-36.48 259.71-36.48L259.71-36.48L259.71-36.48Q256.70-36.48 254.82-37.76L254.82-37.76L254.82-37.76Q252.93-39.04 252.93-41.54ZM294.91 1.28L294.91 1.28L294.91 1.28Q287.17 1.28 287.17-4.74L287.17-4.74L287.17-4.74Q287.23-6.40 287.74-9.22L287.74-9.22L288.90-15.10L288.90-15.10Q290.62-23.42 290.62-25.28L290.62-25.28L290.62-25.28Q290.62-28.99 288.45-28.99L288.45-28.99L288.45-28.99Q284.80-28.99 282.88-19.46L282.88-19.46L279.10 0L266.24 1.28L272.90-32.70L283.39-33.92L282.37-27.65L282.37-27.65Q285.38-33.92 294.59-33.92L294.59-33.92L294.59-33.92Q299.07-33.92 300.96-32.03L300.96-32.03L300.96-32.03Q302.85-30.14 302.85-25.92L302.85-25.92L302.85-25.92Q302.85-21.95 300.80-12.67L300.80-12.67L300.80-12.67Q299.84-8.51 299.84-6.94L299.84-6.94L299.84-6.94Q299.84-5.38 300.70-4.48L300.70-4.48L300.70-4.48Q301.57-3.58 302.85-3.46L302.85-3.46L302.85-3.46Q302.21-1.28 300 0L300 0L300 0Q297.79 1.28 294.91 1.28ZM310.75-1.92L310.75-1.92L310.75-1.92Q309.25-3.58 308.58-6.21L308.58-6.21L308.58-6.21Q307.90-8.83 307.90-13.12L307.90-13.12L307.90-13.12Q307.90-17.41 309.38-21.31L309.38-21.31L309.38-21.31Q310.85-25.22 313.54-28.03L313.54-28.03L313.54-28.03Q319.04-33.92 328.13-33.92L328.13-33.92L328.13-33.92Q331.39-33.92 333.76-32.83L333.76-32.83L344.70-33.92L339.97-8.96L339.97-8.96Q339.78-8.19 339.78-6.78L339.78-6.78L339.78-6.78Q339.78-5.38 340.64-4.48L340.64-4.48L340.64-4.48Q341.50-3.58 342.78-3.46L342.78-3.46L342.78-3.46Q342.14-1.28 339.81 0L339.81 0L339.81 0Q337.47 1.28 334.85 1.28L334.85 1.28L334.85 1.28Q332.22 1.28 330.46 0.29L330.46 0.29L330.46 0.29Q328.70-0.70 328.19-2.37L328.19-2.37L328.19-2.37Q327.17-0.77 324.99 0.26L324.99 0.26L324.99 0.26Q322.82 1.28 319.90 1.28L319.90 1.28L319.90 1.28Q316.99 1.28 314.62 0.51L314.62 0.51L314.62 0.51Q312.26-0.26 310.75-1.92ZM324.26-27.90L324.26-27.90L324.26-27.90Q323.52-26.75 322.88-24.80L322.88-24.80L322.88-24.80Q322.24-22.85 321.18-17.63L321.18-17.63L321.18-17.63Q320.13-12.42 320.13-8.70L320.13-8.70L320.13-8.70Q320.13-4.99 320.70-3.90L320.70-3.90L320.70-3.90Q321.28-2.82 322.30-2.82L322.30-2.82L322.30-2.82Q324.35-2.82 325.86-4.77L325.86-4.77L325.86-4.77Q327.36-6.72 327.94-10.18L327.94-10.18L331.33-28.93L331.33-28.93Q329.98-30.08 328.42-30.08L328.42-30.08L328.42-30.08Q326.85-30.08 325.92-29.57L325.92-29.57L325.92-29.57Q324.99-29.06 324.26-27.90ZM349.18-6.40L349.18-6.40L349.18-6.40Q349.18-8.13 350.08-12.48L350.08-12.48L353.47-29.76L349.70-29.76L349.95-31.68L349.95-31.68Q357.63-33.98 365.06-39.62L365.06-39.62L368.13-39.62L366.59-32.64L371.58-32.64L371.01-29.76L366.08-29.76L362.82-12.48L362.82-12.48Q361.98-8.51 361.98-7.17L361.98-7.17L361.98-7.17Q361.98-4.10 364.67-3.46L364.67-3.46L364.67-3.46Q364.03-1.28 361.73 0L361.73 0L361.73 0Q359.42 1.28 356.16 1.28L356.16 1.28L356.16 1.28Q352.90 1.28 351.04-0.77L351.04-0.77L351.04-0.77Q349.18-2.82 349.18-6.40ZM386.62-3.52L386.62-3.52L386.62-3.52Q384.64 1.28 378.30 1.28L378.30 1.28L378.30 1.28Q375.04 1.28 372.99-0.96L372.99-0.96L372.99-0.96Q371.26-2.94 371.26-4.93L371.26-4.93L371.26-4.93Q371.26-10.11 373.63-20.22L373.63-20.22L376-32.64L388.99-33.92L385.09-13.70L385.09-13.70Q384-8.96 384-7.30L384-7.30L384-7.30Q384-3.65 386.62-3.52ZM377.15-41.54L377.15-41.54L377.15-41.54Q377.15-44.03 379.23-45.38L379.23-45.38L379.23-45.38Q381.31-46.72 384.32-46.72L384.32-46.72L384.32-46.72Q387.33-46.72 389.15-45.38L389.15-45.38L389.15-45.38Q390.98-44.03 390.98-41.54L390.98-41.54L390.98-41.54Q390.98-39.04 388.96-37.76L388.96-37.76L388.96-37.76Q386.94-36.48 383.94-36.48L383.94-36.48L383.94-36.48Q380.93-36.48 379.04-37.76L379.04-37.76L379.04-37.76Q377.15-39.04 377.15-41.54ZM406.02 1.28L406.02 1.28L406.02 1.28Q391.94 1.28 391.94-11.97L391.94-11.97L391.94-11.97Q391.94-21.38 397.12-27.46L397.12-27.46L397.12-27.46Q402.62-33.92 412.16-33.92L412.16-33.92L412.16-33.92Q419.07-33.92 422.59-30.72L422.59-30.72L422.59-30.72Q426.11-27.52 426.11-20.80L426.11-20.80L426.11-20.80Q426.11-10.56 420.61-4.61L420.61-4.61L420.61-4.61Q415.23 1.28 406.02 1.28ZM407.68-26.56L407.68-26.56L407.68-26.56Q406.91-24.83 406.30-22.24L406.30-22.24L406.30-22.24Q405.70-19.65 404.93-15.55L404.93-15.55L404.93-15.55Q404.16-11.46 404.16-6.40L404.16-6.40L404.16-6.40Q404.16-4.74 404.70-3.65L404.70-3.65L404.70-3.65Q405.25-2.56 406.72-2.56L406.72-2.56L406.72-2.56Q408.19-2.56 409.12-3.26L409.12-3.26L409.12-3.26Q410.05-3.97 410.75-5.63L410.75-5.63L410.75-5.63Q412.03-8.58 413.06-14.05L413.06-14.05L413.06-14.05Q414.08-19.52 414.18-21.89L414.18-21.89L414.18-21.89Q414.27-24.26 414.27-26.02L414.27-26.02L414.27-26.02Q414.27-27.78 413.76-28.93L413.76-28.93L413.76-28.93Q413.25-30.08 411.81-30.08L411.81-30.08L411.81-30.08Q410.37-30.08 409.41-29.18L409.41-29.18L409.41-29.18Q408.45-28.29 407.68-26.56ZM456.96 1.28L456.96 1.28L456.96 1.28Q449.22 1.28 449.22-4.74L449.22-4.74L449.22-4.74Q449.28-6.40 449.79-9.22L449.79-9.22L450.94-15.10L450.94-15.10Q452.67-23.42 452.67-25.28L452.67-25.28L452.67-25.28Q452.67-28.99 450.50-28.99L450.50-28.99L450.50-28.99Q446.85-28.99 444.93-19.46L444.93-19.46L441.15 0L428.29 1.28L434.94-32.70L445.44-33.92L444.42-27.65L444.42-27.65Q447.42-33.92 456.64-33.92L456.64-33.92L456.64-33.92Q461.12-33.92 463.01-32.03L463.01-32.03L463.01-32.03Q464.90-30.14 464.90-25.92L464.90-25.92L464.90-25.92Q464.90-21.95 462.85-12.67L462.85-12.67L462.85-12.67Q461.89-8.51 461.89-6.94L461.89-6.94L461.89-6.94Q461.89-5.38 462.75-4.48L462.75-4.48L462.75-4.48Q463.62-3.58 464.90-3.46L464.90-3.46L464.90-3.46Q464.26-1.28 462.05 0L462.05 0L462.05 0Q459.84 1.28 456.96 1.28ZM489.15-22.46L489.15-22.46L489.15-22.46Q490.05-24.83 490.05-26.88L490.05-26.88L490.05-26.88Q490.05-30.66 486.98-30.66L486.98-30.66L486.98-30.66Q485.38-30.66 484.06-29.22L484.06-29.22L484.06-29.22Q482.75-27.78 482.75-25.98L482.75-25.98L482.75-25.98Q482.75-24.70 483.78-23.68L483.78-23.68L483.78-23.68Q485.25-22.27 489.02-19.97L489.02-19.97L489.02-19.97Q492.80-17.66 494.24-15.78L494.24-15.78L494.24-15.78Q495.68-13.89 495.68-11.30L495.68-11.30L495.68-11.30Q495.68-8.70 494.43-6.34L494.43-6.34L494.43-6.34Q493.18-3.97 490.94-2.30L490.94-2.30L490.94-2.30Q486.14 1.28 478.46 1.28L478.46 1.28L478.46 1.28Q474.30 1.28 471.10-0.90L471.10-0.90L471.10-0.90Q467.90-3.01 467.90-5.50L467.90-5.50L467.90-5.50Q467.90-8 469.73-9.47L469.73-9.47L469.73-9.47Q471.55-10.94 474.24-10.94L474.24-10.94L474.24-10.94Q476.93-10.94 478.59-9.92L478.59-9.92L478.59-9.92Q477.76-7.81 477.76-6.40L477.76-6.40L477.76-6.40Q477.76-2.18 481.34-2.18L481.34-2.18L481.34-2.18Q482.88-2.18 483.90-3.14L483.90-3.14L483.90-3.14Q484.93-4.10 484.93-5.76L484.93-5.76L484.93-5.76Q484.93-9.02 479.42-12.48L479.42-12.48L479.42-12.48Q474.94-15.42 473.92-16.58L473.92-16.58L473.92-16.58Q472.19-18.62 472.19-21.18L472.19-21.18L472.19-21.18Q472.19-23.74 473.41-26.18L473.41-26.18L473.41-26.18Q474.62-28.61 476.86-30.34L476.86-30.34L476.86-30.34Q481.54-33.92 489.66-33.92L489.66-33.92L489.66-33.92Q493.82-33.92 496.29-32.26L496.29-32.26L496.29-32.26Q498.75-30.59 498.75-27.78L498.75-27.78L498.75-27.78Q498.75-24.96 497.06-23.36L497.06-23.36L497.06-23.36Q495.36-21.76 492.29-21.76L492.29-21.76L492.29-21.76Q490.18-21.76 489.15-22.46ZM499.97-3.78L499.97-3.78L499.97-3.78Q499.97-6.21 501.86-7.55L501.86-7.55L501.86-7.55Q503.74-8.90 506.43-8.90L506.43-8.90L506.43-8.90Q509.12-8.90 510.75-7.55L510.75-7.55L510.75-7.55Q512.38-6.21 512.38-3.78L512.38-3.78L512.38-3.78Q512.38-1.34 510.56-0.03L510.56-0.03L510.56-0.03Q508.74 1.28 506.05 1.28L506.05 1.28L506.05 1.28Q503.36 1.28 501.66-0.03L501.66-0.03L501.66-0.03Q499.97-1.34 499.97-3.78ZM505.22-28.80L505.22-28.80L505.22-28.80Q505.22-31.23 507.10-32.58L507.10-32.58L507.10-32.58Q508.99-33.92 511.68-33.92L511.68-33.92L511.68-33.92Q514.37-33.92 516-32.58L516-32.58L516-32.58Q517.63-31.23 517.63-28.80L517.63-28.80L517.63-28.80Q517.63-26.37 515.81-25.06L515.81-25.06L515.81-25.06Q513.98-23.74 511.30-23.74L511.30-23.74L511.30-23.74Q508.61-23.74 506.91-25.06L506.91-25.06L506.91-25.06Q505.22-26.37 505.22-28.80Z" fill="#ccc"></path></g></g><style>text {
  font-size: 64px;
  font-family: Arial Black;
  dominant-baseline: central;
  text-anchor: middle;
}</style></svg>