<svg width="1266.843798828125px" height="122.021240234375px" xmlns="http://www.w3.org/2000/svg" viewBox="-383.4218994140625 13.9893798828125 1266.843798828125 122.021240234375" style="background: rgba(0, 0, 0, 0);" preserveAspectRatio="xMidYMid"><defs><filter id="editing-extrusion" x="-100%" y="-100%" width="300%" height="300%"><feFlood result="color1" flood-color="#444444"></feFlood><feConvolveMatrix order="8,8" divisor="1" kernelMatrix="1 0 0 0 0 0 0 0 0 1 0 0 0 0 0 0 0 0 1 0 0 0 0 0 0 0 0 1 0 0 0 0 0 0 0 0 1 0 0 0 0 0 0 0 0 1 0 0 0 0 0 0 0 0 1 0 0 0 0 0 0 0 0 1" in="SourceAlpha" result="extrude"></feConvolveMatrix><feComposite in="color1" in2="extrude" result="comp-extrude" operator="in"></feComposite><feOffset dx="4" dy="4" in="comp-extrude" result="offset-extrude"></feOffset><feMerge><feMergeNode in="offset-extrude"></feMergeNode><feMergeNode in="SourceGraphic"></feMergeNode></feMerge></filter></defs><g filter="url(#editing-extrusion)"><g transform="translate(-208.96530151367188, 104.78218841552734)"><path d="M7.17 0L10.88-18.82L10.88-18.82Q9.02-36.16 2.50-39.87L2.50-39.87L2.50-39.87Q3.84-41.54 6.02-42.46L6.02-42.46L6.02-42.46Q8.19-43.39 10.82-43.39L10.82-43.39L10.82-43.39Q13.44-43.39 15.42-42.46L15.42-42.46L15.42-42.46Q17.41-41.54 18.69-39.55L18.69-39.55L18.69-39.55Q21.12-35.78 21.12-26.75L21.12-26.75L21.12-22.14L21.12-22.14Q24.96-33.41 28.80-38.27L28.80-38.27L28.80-38.27Q32.70-43.26 37.57-43.26L37.57-43.26L37.57-43.26Q39.49-43.26 40.77-42.27L40.77-42.27L40.77-42.27Q42.05-41.28 42.69-39.81L42.69-39.81L42.69-39.81Q37.76-37.63 33.02-31.36L33.02-31.36L33.02-31.36Q28.29-25.09 25.22-16.32L25.22-16.32L21.44 0L7.17 0ZM50.05 1.28L50.05 1.28L50.05 1.28Q35.97 1.28 35.97-11.97L35.97-11.97L35.97-11.97Q35.97-21.38 41.15-27.46L41.15-27.46L41.15-27.46Q46.66-33.92 56.19-33.92L56.19-33.92L56.19-33.92Q63.10-33.92 66.62-30.72L66.62-30.72L66.62-30.72Q70.14-27.52 70.14-20.80L70.14-20.80L70.14-20.80Q70.14-10.56 64.64-4.61L64.64-4.61L64.64-4.61Q59.26 1.28 50.05 1.28ZM51.71-26.56L51.71-26.56L51.71-26.56Q50.94-24.83 50.34-22.24L50.34-22.24L50.34-22.24Q49.73-19.65 48.96-15.55L48.96-15.55L48.96-15.55Q48.19-11.46 48.19-6.40L48.19-6.40L48.19-6.40Q48.19-4.74 48.74-3.65L48.74-3.65L48.74-3.65Q49.28-2.56 50.75-2.56L50.75-2.56L50.75-2.56Q52.22-2.56 53.15-3.26L53.15-3.26L53.15-3.26Q54.08-3.97 54.78-5.63L54.78-5.63L54.78-5.63Q56.06-8.58 57.09-14.05L57.09-14.05L57.09-14.05Q58.11-19.52 58.21-21.89L58.21-21.89L58.21-21.89Q58.30-24.26 58.30-26.02L58.30-26.02L58.30-26.02Q58.30-27.78 57.79-28.93L57.79-28.93L57.79-28.93Q57.28-30.08 55.84-30.08L55.84-30.08L55.84-30.08Q54.40-30.08 53.44-29.18L53.44-29.18L53.44-29.18Q52.48-28.29 51.71-26.56ZM94.46-2.69L94.46-2.69L94.46-2.69Q91.39 1.28 83.78 1.28L83.78 1.28L83.78 1.28Q79.81 1.28 76.93-1.12L76.93-1.12L76.93-1.12Q74.05-3.52 74.05-6.98L74.05-6.98L74.05-6.98Q74.05-8.90 74.24-9.86L74.24-9.86L78.53-32.64L91.52-33.92L86.85-9.22L86.85-9.22Q86.59-7.81 86.59-6.98L86.59-6.98L86.59-6.98Q86.59-3.26 88.83-3.26L88.83-3.26L88.83-3.26Q91.33-3.26 93.12-6.66L93.12-6.66L93.12-6.66Q93.70-7.74 93.95-9.15L93.95-9.15L98.50-32.64L111.10-33.92L106.37-8.96L106.37-8.96Q106.18-8 106.18-6.98L106.18-6.98L106.18-6.98Q106.18-5.95 106.75-4.83L106.75-4.83L106.75-4.83Q107.33-3.71 109.18-3.46L109.18-3.46L109.18-3.46Q108.80-1.92 107.46-0.90L107.46-0.90L107.46-0.90Q104.64 1.28 101.60 1.28L101.60 1.28L101.60 1.28Q98.56 1.28 96.77 0.19L96.77 0.19L96.77 0.19Q94.98-0.90 94.46-2.69ZM134.59-17.98L134.59-17.98L134.59-17.98Q136.90-22.08 136.90-26.24L136.90-26.24L136.90-26.24Q136.90-28.99 134.91-28.99L134.91-28.99L134.91-28.99Q133.38-28.99 131.78-26.37L131.78-26.37L131.78-26.37Q130.11-23.74 129.60-20.35L129.60-20.35L126.27 0L113.02 1.28L119.55-32.64L130.11-33.92L128.96-27.46L128.96-27.46Q132.10-33.92 139.14-33.92L139.14-33.92L139.14-33.92Q142.85-33.92 144.86-32L144.86-32L144.86-32Q146.88-30.08 146.88-26.14L146.88-26.14L146.88-26.14Q146.88-22.21 144.29-19.71L144.29-19.71L144.29-19.71Q141.70-17.22 137.28-17.22L137.28-17.22L137.28-17.22Q135.36-17.22 134.59-17.98ZM180.22-22.46L180.22-22.46L180.22-22.46Q181.12-24.83 181.12-26.88L181.12-26.88L181.12-26.88Q181.12-30.66 178.05-30.66L178.05-30.66L178.05-30.66Q176.45-30.66 175.14-29.22L175.14-29.22L175.14-29.22Q173.82-27.78 173.82-25.98L173.82-25.98L173.82-25.98Q173.82-24.70 174.85-23.68L174.85-23.68L174.85-23.68Q176.32-22.27 180.10-19.97L180.10-19.97L180.10-19.97Q183.87-17.66 185.31-15.78L185.31-15.78L185.31-15.78Q186.75-13.89 186.75-11.30L186.75-11.30L186.75-11.30Q186.75-8.70 185.50-6.34L185.50-6.34L185.50-6.34Q184.26-3.97 182.02-2.30L182.02-2.30L182.02-2.30Q177.22 1.28 169.54 1.28L169.54 1.28L169.54 1.28Q165.38 1.28 162.18-0.90L162.18-0.90L162.18-0.90Q158.98-3.01 158.98-5.50L158.98-5.50L158.98-5.50Q158.98-8 160.80-9.47L160.80-9.47L160.80-9.47Q162.62-10.94 165.31-10.94L165.31-10.94L165.31-10.94Q168-10.94 169.66-9.92L169.66-9.92L169.66-9.92Q168.83-7.81 168.83-6.40L168.83-6.40L168.83-6.40Q168.83-2.18 172.42-2.18L172.42-2.18L172.42-2.18Q173.95-2.18 174.98-3.14L174.98-3.14L174.98-3.14Q176-4.10 176-5.76L176-5.76L176-5.76Q176-9.02 170.50-12.48L170.50-12.48L170.50-12.48Q166.02-15.42 164.99-16.58L164.99-16.58L164.99-16.58Q163.26-18.62 163.26-21.18L163.26-21.18L163.26-21.18Q163.26-23.74 164.48-26.18L164.48-26.18L164.48-26.18Q165.70-28.61 167.94-30.34L167.94-30.34L167.94-30.34Q172.61-33.92 180.74-33.92L180.74-33.92L180.74-33.92Q184.90-33.92 187.36-32.26L187.36-32.26L187.36-32.26Q189.82-30.59 189.82-27.78L189.82-27.78L189.82-27.78Q189.82-24.96 188.13-23.36L188.13-23.36L188.13-23.36Q186.43-21.76 183.36-21.76L183.36-21.76L183.36-21.76Q181.25-21.76 180.22-22.46ZM218.11-10.82L218.11-10.82L218.11-10.82Q219.71-9.73 219.71-7.33L219.71-7.33L219.71-7.33Q219.71-4.93 218.50-3.39L218.50-3.39L218.50-3.39Q217.28-1.86 215.30-0.83L215.30-0.83L215.30-0.83Q211.20 1.28 206.78 1.28L206.78 1.28L206.78 1.28Q202.37 1.28 199.78 0.32L199.78 0.32L199.78 0.32Q197.18-0.64 195.46-2.43L195.46-2.43L195.46-2.43Q192.06-5.82 192.06-12.03L192.06-12.03L192.06-12.03Q192.06-21.70 197.31-27.58L197.31-27.58L197.31-27.58Q202.94-33.92 212.74-33.92L212.74-33.92L212.74-33.92Q218.82-33.92 221.82-31.36L221.82-31.36L221.82-31.36Q224.06-29.44 224.06-26.30L224.06-26.30L224.06-26.30Q224.06-15.04 204.61-15.04L204.61-15.04L204.61-15.04Q204.35-13.38 204.35-11.97L204.35-11.97L204.35-11.97Q204.35-9.02 205.66-7.90L205.66-7.90L205.66-7.90Q206.98-6.78 209.41-6.78L209.41-6.78L209.41-6.78Q211.84-6.78 214.43-7.90L214.43-7.90L214.43-7.90Q217.02-9.02 218.11-10.82ZM205.06-17.79L205.06-17.79L205.06-17.79Q209.60-17.79 212.22-20.61L212.22-20.61L212.22-20.61Q214.85-23.30 214.85-27.58L214.85-27.58L214.85-27.58Q214.85-29.06 214.30-29.86L214.30-29.86L214.30-29.86Q213.76-30.66 212.67-30.66L212.67-30.66L212.67-30.66Q211.58-30.66 210.66-30.24L210.66-30.24L210.66-30.24Q209.73-29.82 208.77-28.42L208.77-28.42L208.77-28.42Q206.40-25.22 205.06-17.79ZM229.02-1.92L229.02-1.92L229.02-1.92Q227.52-3.58 226.85-6.21L226.85-6.21L226.85-6.21Q226.18-8.83 226.18-13.12L226.18-13.12L226.18-13.12Q226.18-17.41 227.65-21.31L227.65-21.31L227.65-21.31Q229.12-25.22 231.81-28.03L231.81-28.03L231.81-28.03Q237.31-33.92 246.40-33.92L246.40-33.92L246.40-33.92Q249.66-33.92 252.03-32.83L252.03-32.83L262.98-33.92L258.24-8.96L258.24-8.96Q258.05-8.19 258.05-6.78L258.05-6.78L258.05-6.78Q258.05-5.38 258.91-4.48L258.91-4.48L258.91-4.48Q259.78-3.58 261.06-3.46L261.06-3.46L261.06-3.46Q260.42-1.28 258.08 0L258.08 0L258.08 0Q255.74 1.28 253.12 1.28L253.12 1.28L253.12 1.28Q250.50 1.28 248.74 0.29L248.74 0.29L248.74 0.29Q246.98-0.70 246.46-2.37L246.46-2.37L246.46-2.37Q245.44-0.77 243.26 0.26L243.26 0.26L243.26 0.26Q241.09 1.28 238.18 1.28L238.18 1.28L238.18 1.28Q235.26 1.28 232.90 0.51L232.90 0.51L232.90 0.51Q230.53-0.26 229.02-1.92ZM242.53-27.90L242.53-27.90L242.53-27.90Q241.79-26.75 241.15-24.80L241.15-24.80L241.15-24.80Q240.51-22.85 239.46-17.63L239.46-17.63L239.46-17.63Q238.40-12.42 238.40-8.70L238.40-8.70L238.40-8.70Q238.40-4.99 238.98-3.90L238.98-3.90L238.98-3.90Q239.55-2.82 240.58-2.82L240.58-2.82L240.58-2.82Q242.62-2.82 244.13-4.77L244.13-4.77L244.13-4.77Q245.63-6.72 246.21-10.18L246.21-10.18L249.60-28.93L249.60-28.93Q248.26-30.08 246.69-30.08L246.69-30.08L246.69-30.08Q245.12-30.08 244.19-29.57L244.19-29.57L244.19-29.57Q243.26-29.06 242.53-27.90ZM286.46-17.98L286.46-17.98L286.46-17.98Q288.77-22.08 288.77-26.24L288.77-26.24L288.77-26.24Q288.77-28.99 286.78-28.99L286.78-28.99L286.78-28.99Q285.25-28.99 283.65-26.37L283.65-26.37L283.65-26.37Q281.98-23.74 281.47-20.35L281.47-20.35L278.14 0L264.90 1.28L271.42-32.64L281.98-33.92L280.83-27.46L280.83-27.46Q283.97-33.92 291.01-33.92L291.01-33.92L291.01-33.92Q294.72-33.92 296.74-32L296.74-32L296.74-32Q298.75-30.08 298.75-26.14L298.75-26.14L298.75-26.14Q298.75-22.21 296.16-19.71L296.16-19.71L296.16-19.71Q293.57-17.22 289.15-17.22L289.15-17.22L289.15-17.22Q287.23-17.22 286.46-17.98ZM331.20-26.62L331.20-26.62L331.20-26.62Q331.20-23.94 328.96-22.27L328.96-22.27L328.96-22.27Q326.72-20.61 323.07-20.61L323.07-20.61L323.07-20.61Q321.54-20.61 320.64-21.06L320.64-21.06L320.64-21.06Q321.34-22.72 321.57-24.80L321.57-24.80L321.57-24.80Q321.79-26.88 321.79-27.46L321.79-27.46L321.79-27.46Q321.79-30.14 319.94-30.14L319.94-30.14L319.94-30.14Q318.66-30.14 317.22-28.54L317.22-28.54L317.22-28.54Q315.78-26.94 314.56-24.45L314.56-24.45L314.56-24.45Q311.87-18.69 311.87-12.86L311.87-12.86L311.87-12.86Q311.87-9.66 313.09-8.22L313.09-8.22L313.09-8.22Q314.30-6.78 316.99-6.78L316.99-6.78L316.99-6.78Q320.70-6.78 323.65-9.86L323.65-9.86L323.65-9.86Q324.48-10.82 324.93-11.90L324.93-11.90L324.93-11.90Q327.36-10.62 327.36-7.10L327.36-7.10L327.36-7.10Q327.36-3.52 323.39-1.15L323.39-1.15L323.39-1.15Q319.30 1.28 312.77 1.28L312.77 1.28L312.77 1.28Q299.78 1.28 299.78-12.48L299.78-12.48L299.78-12.48Q299.78-22.53 305.47-28.29L305.47-28.29L305.47-28.29Q310.98-33.92 321.09-33.92L321.09-33.92L321.09-33.92Q331.20-33.92 331.20-26.62ZM365.12-7.10L365.12-7.10L365.12-7.10Q365.12-4.29 368-3.46L368-3.46L368-3.46Q367.30-1.09 364.54 0.19L364.54 0.19L364.54 0.19Q362.24 1.28 359.71 1.28L359.71 1.28L359.71 1.28Q357.18 1.28 355.87 0.61L355.87 0.61L355.87 0.61Q354.56-0.06 353.86-1.15L353.86-1.15L353.86-1.15Q352.70-2.82 352.70-5.95L352.70-5.95L352.70-5.95Q352.70-7.81 353.73-12.93L353.73-12.93L354.62-17.79L354.62-17.79Q355.71-23.36 355.71-25.41L355.71-25.41L355.71-25.41Q355.71-28.99 353.73-28.99L353.73-28.99L353.73-28.99Q351.23-28.99 349.63-25.34L349.63-25.34L349.63-25.34Q348.99-23.94 348.54-21.82L348.54-21.82L344.19 0L331.33 1.28L340.35-44.80L353.22-46.08L352.70-43.52L352.70-43.52Q350.91-33.66 349.38-30.34L349.38-30.34L349.38-30.34Q352.96-33.92 359.55-33.92L359.55-33.92L359.55-33.92Q366.53-33.92 367.81-29.31L367.81-29.31L367.81-29.31Q368.26-27.84 368.26-26.56L368.26-26.56L368.26-26.56Q368.26-25.28 368.16-24.29L368.16-24.29L368.16-24.29Q368.06-23.30 367.74-21.50L367.74-21.50L366.91-16.90L365.44-9.66L365.44-9.66Q365.12-8.19 365.12-7.10ZM418.56-7.10L418.56-7.10L418.56-7.10Q418.56-4.29 421.44-3.46L421.44-3.46L421.44-3.46Q420.74-1.09 417.98 0.19L417.98 0.19L417.98 0.19Q415.68 1.28 413.15 1.28L413.15 1.28L413.15 1.28Q410.62 1.28 409.31 0.61L409.31 0.61L409.31 0.61Q408-0.06 407.30-1.15L407.30-1.15L407.30-1.15Q406.14-2.82 406.14-5.95L406.14-5.95L406.14-5.95Q406.14-7.81 407.17-12.93L407.17-12.93L408.06-17.79L408.06-17.79Q409.15-23.36 409.15-25.41L409.15-25.41L409.15-25.41Q409.15-28.99 407.17-28.99L407.17-28.99L407.17-28.99Q404.67-28.99 403.07-25.34L403.07-25.34L403.07-25.34Q402.43-23.94 401.98-21.82L401.98-21.82L397.63 0L384.77 1.28L393.79-44.80L406.66-46.08L406.14-43.52L406.14-43.52Q404.35-33.66 402.82-30.34L402.82-30.34L402.82-30.34Q406.40-33.92 412.99-33.92L412.99-33.92L412.99-33.92Q419.97-33.92 421.25-29.31L421.25-29.31L421.25-29.31Q421.70-27.84 421.70-26.56L421.70-26.56L421.70-26.56Q421.70-25.28 421.60-24.29L421.60-24.29L421.60-24.29Q421.50-23.30 421.18-21.50L421.18-21.50L420.35-16.90L418.88-9.66L418.88-9.66Q418.56-8.19 418.56-7.10ZM441.98-3.52L441.98-3.52L441.98-3.52Q440.00 1.28 433.66 1.28L433.66 1.28L433.66 1.28Q430.40 1.28 428.35-0.96L428.35-0.96L428.35-0.96Q426.62-2.94 426.62-4.93L426.62-4.93L426.62-4.93Q426.62-10.11 428.99-20.22L428.99-20.22L431.36-32.64L444.35-33.92L440.45-13.70L440.45-13.70Q439.36-8.96 439.36-7.30L439.36-7.30L439.36-7.30Q439.36-3.65 441.98-3.52ZM432.51-41.54L432.51-41.54L432.51-41.54Q432.51-44.03 434.59-45.38L434.59-45.38L434.59-45.38Q436.67-46.72 439.68-46.72L439.68-46.72L439.68-46.72Q442.69-46.72 444.51-45.38L444.51-45.38L444.51-45.38Q446.34-44.03 446.34-41.54L446.34-41.54L446.34-41.54Q446.34-39.04 444.32-37.76L444.32-37.76L444.32-37.76Q442.30-36.48 439.30-36.48L439.30-36.48L439.30-36.48Q436.29-36.48 434.40-37.76L434.40-37.76L434.40-37.76Q432.51-39.04 432.51-41.54ZM466.56-22.46L466.56-22.46L466.56-22.46Q467.46-24.83 467.46-26.88L467.46-26.88L467.46-26.88Q467.46-30.66 464.38-30.66L464.38-30.66L464.38-30.66Q462.78-30.66 461.47-29.22L461.47-29.22L461.47-29.22Q460.16-27.78 460.16-25.98L460.16-25.98L460.16-25.98Q460.16-24.70 461.18-23.68L461.18-23.68L461.18-23.68Q462.66-22.27 466.43-19.97L466.43-19.97L466.43-19.97Q470.21-17.66 471.65-15.78L471.65-15.78L471.65-15.78Q473.09-13.89 473.09-11.30L473.09-11.30L473.09-11.30Q473.09-8.70 471.84-6.34L471.84-6.34L471.84-6.34Q470.59-3.97 468.35-2.30L468.35-2.30L468.35-2.30Q463.55 1.28 455.87 1.28L455.87 1.28L455.87 1.28Q451.71 1.28 448.51-0.90L448.51-0.90L448.51-0.90Q445.31-3.01 445.31-5.50L445.31-5.50L445.31-5.50Q445.31-8 447.14-9.47L447.14-9.47L447.14-9.47Q448.96-10.94 451.65-10.94L451.65-10.94L451.65-10.94Q454.34-10.94 456.00-9.92L456.00-9.92L456.00-9.92Q455.17-7.81 455.17-6.40L455.17-6.40L455.17-6.40Q455.17-2.18 458.75-2.18L458.75-2.18L458.75-2.18Q460.29-2.18 461.31-3.14L461.31-3.14L461.31-3.14Q462.34-4.10 462.34-5.76L462.34-5.76L462.34-5.76Q462.34-9.02 456.83-12.48L456.83-12.48L456.83-12.48Q452.35-15.42 451.33-16.58L451.33-16.58L451.33-16.58Q449.60-18.62 449.60-21.18L449.60-21.18L449.60-21.18Q449.60-23.74 450.82-26.18L450.82-26.18L450.82-26.18Q452.03-28.61 454.27-30.34L454.27-30.34L454.27-30.34Q458.94-33.92 467.07-33.92L467.07-33.92L467.07-33.92Q471.23-33.92 473.70-32.26L473.70-32.26L473.70-32.26Q476.16-30.59 476.16-27.78L476.16-27.78L476.16-27.78Q476.16-24.96 474.46-23.36L474.46-23.36L474.46-23.36Q472.77-21.76 469.70-21.76L469.70-21.76L469.70-21.76Q467.58-21.76 466.56-22.46ZM479.55-6.40L479.55-6.40L479.55-6.40Q479.55-8.13 480.45-12.48L480.45-12.48L483.84-29.76L480.06-29.76L480.32-31.68L480.32-31.68Q488.00-33.98 495.42-39.62L495.42-39.62L498.50-39.62L496.96-32.64L501.95-32.64L501.38-29.76L496.45-29.76L493.18-12.48L493.18-12.48Q492.35-8.51 492.35-7.17L492.35-7.17L492.35-7.17Q492.35-4.10 495.04-3.46L495.04-3.46L495.04-3.46Q494.40-1.28 492.10 0L492.10 0L492.10 0Q489.79 1.28 486.53 1.28L486.53 1.28L486.53 1.28Q483.26 1.28 481.41-0.77L481.41-0.77L481.41-0.77Q479.55-2.82 479.55-6.40ZM515.33 1.28L515.33 1.28L515.33 1.28Q501.25 1.28 501.25-11.97L501.25-11.97L501.25-11.97Q501.25-21.38 506.43-27.46L506.43-27.46L506.43-27.46Q511.94-33.92 521.47-33.92L521.47-33.92L521.47-33.92Q528.38-33.92 531.90-30.72L531.90-30.72L531.90-30.72Q535.42-27.52 535.42-20.80L535.42-20.80L535.42-20.80Q535.42-10.56 529.92-4.61L529.92-4.61L529.92-4.61Q524.54 1.28 515.33 1.28ZM516.99-26.56L516.99-26.56L516.99-26.56Q516.22-24.83 515.62-22.24L515.62-22.24L515.62-22.24Q515.01-19.65 514.24-15.55L514.24-15.55L514.24-15.55Q513.47-11.46 513.47-6.40L513.47-6.40L513.47-6.40Q513.47-4.74 514.02-3.65L514.02-3.65L514.02-3.65Q514.56-2.56 516.03-2.56L516.03-2.56L516.03-2.56Q517.50-2.56 518.43-3.26L518.43-3.26L518.43-3.26Q519.36-3.97 520.06-5.63L520.06-5.63L520.06-5.63Q521.34-8.58 522.37-14.05L522.37-14.05L522.37-14.05Q523.39-19.52 523.49-21.89L523.49-21.89L523.49-21.89Q523.58-24.26 523.58-26.02L523.58-26.02L523.58-26.02Q523.58-27.78 523.07-28.93L523.07-28.93L523.07-28.93Q522.56-30.08 521.12-30.08L521.12-30.08L521.12-30.08Q519.68-30.08 518.72-29.18L518.72-29.18L518.72-29.18Q517.76-28.29 516.99-26.56ZM559.23-17.98L559.23-17.98L559.23-17.98Q561.54-22.08 561.54-26.24L561.54-26.24L561.54-26.24Q561.54-28.99 559.55-28.99L559.55-28.99L559.55-28.99Q558.02-28.99 556.42-26.37L556.42-26.37L556.42-26.37Q554.75-23.74 554.24-20.35L554.24-20.35L550.91 0L537.66 1.28L544.19-32.64L554.75-33.92L553.60-27.46L553.60-27.46Q556.74-33.92 563.78-33.92L563.78-33.92L563.78-33.92Q567.49-33.92 569.50-32L569.50-32L569.50-32Q571.52-30.08 571.52-26.14L571.52-26.14L571.52-26.14Q571.52-22.21 568.93-19.71L568.93-19.71L568.93-19.71Q566.34-17.22 561.92-17.22L561.92-17.22L561.92-17.22Q560.00-17.22 559.23-17.98ZM592.90-7.23L592.90-7.23L592.90-7.23Q589.57-3.78 583.49-3.78L583.49-3.78L583.49-3.78Q575.87-3.78 574.27-9.34L574.27-9.34L574.27-9.34Q573.76-11.01 573.76-12.86L573.76-12.86L573.76-12.86Q573.76-14.72 574.14-16.64L574.14-16.64L577.15-32.64L590.14-33.92L586.62-15.30L586.62-15.30Q586.50-14.46 586.30-13.57L586.30-13.57L586.30-13.57Q586.11-12.67 586.11-11.74L586.11-11.74L586.11-11.74Q586.11-10.82 586.43-10.21L586.43-10.21L586.43-10.21Q586.75-9.60 587.20-9.22L587.20-9.22L587.20-9.22Q587.97-8.70 589.34-8.70L589.34-8.70L589.34-8.70Q590.72-8.70 591.90-10.37L591.90-10.37L591.90-10.37Q593.09-12.03 593.66-14.91L593.66-14.91L597.18-32.64L609.79-33.92L604.99-8.77L604.99-8.77Q602.62 3.52 597.76 8.38L597.76 8.38L597.76 8.38Q595.26 10.88 592.03 11.87L592.03 11.87L592.03 11.87Q588.80 12.86 584.64 12.86L584.64 12.86L584.64 12.86Q577.92 12.86 574.08 10.75L574.08 10.75L574.08 10.75Q570.24 8.64 570.24 5.12L570.24 5.12L570.24 5.12Q570.24 2.50 572.22 0.99L572.22 0.99L572.22 0.99Q574.21-0.51 577.28-0.51L577.28-0.51L577.28-0.51Q579.97-0.51 582.02 0.64L582.02 0.64L582.02 0.64Q583.23 1.34 583.81 2.24L583.81 2.24L583.81 2.24Q582.34 3.52 582.34 5.63L582.34 5.63L582.34 5.63Q582.34 8.45 584.90 8.45L584.90 8.45L584.90 8.45Q589.12 8.45 591.55-1.28L591.55-1.28L591.55-1.28Q592.26-4.16 592.90-7.23ZM640.64-3.52L640.64-3.52L640.64-3.52Q638.66 1.28 632.32 1.28L632.32 1.28L632.32 1.28Q629.06 1.28 627.01-0.96L627.01-0.96L627.01-0.96Q625.28-2.94 625.28-4.93L625.28-4.93L625.28-4.93Q625.28-10.11 627.65-20.22L627.65-20.22L630.02-32.64L643.01-33.92L639.10-13.70L639.10-13.70Q638.02-8.96 638.02-7.30L638.02-7.30L638.02-7.30Q638.02-3.65 640.64-3.52ZM631.17-41.54L631.17-41.54L631.17-41.54Q631.17-44.03 633.25-45.38L633.25-45.38L633.25-45.38Q635.33-46.72 638.34-46.72L638.34-46.72L638.34-46.72Q641.34-46.72 643.17-45.38L643.17-45.38L643.17-45.38Q644.99-44.03 644.99-41.54L644.99-41.54L644.99-41.54Q644.99-39.04 642.98-37.76L642.98-37.76L642.98-37.76Q640.96-36.48 637.95-36.48L637.95-36.48L637.95-36.48Q634.94-36.48 633.06-37.76L633.06-37.76L633.06-37.76Q631.17-39.04 631.17-41.54ZM665.22-22.46L665.22-22.46L665.22-22.46Q666.11-24.83 666.11-26.88L666.11-26.88L666.11-26.88Q666.11-30.66 663.04-30.66L663.04-30.66L663.04-30.66Q661.44-30.66 660.13-29.22L660.13-29.22L660.13-29.22Q658.82-27.78 658.82-25.98L658.82-25.98L658.82-25.98Q658.82-24.70 659.84-23.68L659.84-23.68L659.84-23.68Q661.31-22.27 665.09-19.97L665.09-19.97L665.09-19.97Q668.86-17.66 670.30-15.78L670.30-15.78L670.30-15.78Q671.74-13.89 671.74-11.30L671.74-11.30L671.74-11.30Q671.74-8.70 670.50-6.34L670.50-6.34L670.50-6.34Q669.25-3.97 667.01-2.30L667.01-2.30L667.01-2.30Q662.21 1.28 654.53 1.28L654.53 1.28L654.53 1.28Q650.37 1.28 647.17-0.90L647.17-0.90L647.17-0.90Q643.97-3.01 643.97-5.50L643.97-5.50L643.97-5.50Q643.97-8 645.79-9.47L645.79-9.47L645.79-9.47Q647.62-10.94 650.30-10.94L650.30-10.94L650.30-10.94Q652.99-10.94 654.66-9.92L654.66-9.92L654.66-9.92Q653.82-7.81 653.82-6.40L653.82-6.40L653.82-6.40Q653.82-2.18 657.41-2.18L657.41-2.18L657.41-2.18Q658.94-2.18 659.97-3.14L659.97-3.14L659.97-3.14Q660.99-4.10 660.99-5.76L660.99-5.76L660.99-5.76Q660.99-9.02 655.49-12.48L655.49-12.48L655.49-12.48Q651.01-15.42 649.98-16.58L649.98-16.58L649.98-16.58Q648.26-18.62 648.26-21.18L648.26-21.18L648.26-21.18Q648.26-23.74 649.47-26.18L649.47-26.18L649.47-26.18Q650.69-28.61 652.93-30.34L652.93-30.34L652.93-30.34Q657.60-33.92 665.73-33.92L665.73-33.92L665.73-33.92Q669.89-33.92 672.35-32.26L672.35-32.26L672.35-32.26Q674.82-30.59 674.82-27.78L674.82-27.78L674.82-27.78Q674.82-24.96 673.12-23.36L673.12-23.36L673.12-23.36Q671.42-21.76 668.35-21.76L668.35-21.76L668.35-21.76Q666.24-21.76 665.22-22.46ZM716.29-10.82L716.29-10.82L716.29-10.82Q717.89-9.73 717.89-7.33L717.89-7.33L717.89-7.33Q717.89-4.93 716.67-3.39L716.67-3.39L716.67-3.39Q715.46-1.86 713.47-0.83L713.47-0.83L713.47-0.83Q709.38 1.28 704.96 1.28L704.96 1.28L704.96 1.28Q700.54 1.28 697.95 0.32L697.95 0.32L697.95 0.32Q695.36-0.64 693.63-2.43L693.63-2.43L693.63-2.43Q690.24-5.82 690.24-12.03L690.24-12.03L690.24-12.03Q690.24-21.70 695.49-27.58L695.49-27.58L695.49-27.58Q701.12-33.92 710.91-33.92L710.91-33.92L710.91-33.92Q716.99-33.92 720.00-31.36L720.00-31.36L720.00-31.36Q722.24-29.44 722.24-26.30L722.24-26.30L722.24-26.30Q722.24-15.04 702.78-15.04L702.78-15.04L702.78-15.04Q702.53-13.38 702.53-11.97L702.53-11.97L702.53-11.97Q702.53-9.02 703.84-7.90L703.84-7.90L703.84-7.90Q705.15-6.78 707.58-6.78L707.58-6.78L707.58-6.78Q710.02-6.78 712.61-7.90L712.61-7.90L712.61-7.90Q715.20-9.02 716.29-10.82ZM703.23-17.79L703.23-17.79L703.23-17.79Q707.78-17.79 710.40-20.61L710.40-20.61L710.40-20.61Q713.02-23.30 713.02-27.58L713.02-27.58L713.02-27.58Q713.02-29.06 712.48-29.86L712.48-29.86L712.48-29.86Q711.94-30.66 710.85-30.66L710.85-30.66L710.85-30.66Q709.76-30.66 708.83-30.24L708.83-30.24L708.83-30.24Q707.90-29.82 706.94-28.42L706.94-28.42L706.94-28.42Q704.58-25.22 703.23-17.79ZM770.50 1.28L770.50 1.28L770.50 1.28Q762.75 1.28 762.75-4.74L762.75-4.74L762.75-4.74Q762.75-7.36 763.87-12.45L763.87-12.45L763.87-12.45Q764.99-17.54 765.38-19.58L765.38-19.58L765.38-19.58Q766.27-24.26 766.27-25.73L766.27-25.73L766.27-25.73Q766.27-28.99 763.84-28.99L763.84-28.99L763.84-28.99Q762.24-28.99 760.70-26.78L760.70-26.78L760.70-26.78Q759.17-24.58 758.46-20.16L758.46-20.16L754.50 0L742.02 1.28L745.47-16.13L745.47-16.13Q746.05-19.01 746.56-22.27L746.56-22.27L746.56-22.27Q747.07-25.54 747.07-26.05L747.07-26.05L747.07-26.05Q747.07-28.99 744.90-28.99L744.90-28.99L744.90-28.99Q743.42-28.99 741.82-26.82L741.82-26.82L741.82-26.82Q740.22-24.64 739.33-20.16L739.33-20.16L735.42 0L722.82 1.28L729.54-32.64L739.97-33.92L738.88-27.46L738.88-27.46Q740.54-30.91 743.62-32.42L743.62-32.42L743.62-32.42Q746.69-33.92 751.49-33.92L751.49-33.92L751.49-33.92Q754.24-33.92 756.03-32.58L756.03-32.58L756.03-32.58Q757.82-31.23 758.40-29.06L758.40-29.06L758.40-29.06Q759.49-31.30 762.27-32.61L762.27-32.61L762.27-32.61Q765.06-33.92 768.48-33.92L768.48-33.92L768.48-33.92Q771.90-33.92 773.60-33.18L773.60-33.18L773.60-33.18Q775.30-32.45 776.32-31.23L776.32-31.23L776.32-31.23Q778.05-28.99 778.05-24.90L778.05-24.90L778.05-24.90Q778.05-20.86 776.32-12.48L776.32-12.48L776.32-12.48Q775.42-8.38 775.42-6.88L775.42-6.88L775.42-6.88Q775.42-5.38 776.29-4.48L776.29-4.48L776.29-4.48Q777.15-3.58 778.43-3.46L778.43-3.46L778.43-3.46Q777.79-1.28 775.58 0L775.58 0L775.58 0Q773.38 1.28 770.50 1.28ZM813.18-4.38L813.18-4.38L813.18-4.38Q810.50-1.66 806.82-0.19L806.82-0.19L806.82-0.19Q803.14 1.28 799.49 1.28L799.49 1.28L799.49 1.28Q795.84 1.28 794.56 0.64L794.56 0.64L792.58 11.52L779.58 12.80L788.42-32.64L798.85-33.73L798.02-29.31L798.02-29.31Q800.70-33.86 806.27-33.86L806.27-33.86L806.27-33.86Q812.54-33.86 815.87-29.82L815.87-29.82L815.87-29.82Q818.82-26.18 818.82-20.61L818.82-20.61L818.82-20.61Q818.82-15.04 817.34-11.07L817.34-11.07L817.34-11.07Q815.87-7.10 813.18-4.38ZM798.72-22.34L795.33-3.58L795.33-3.58Q796.67-2.43 798.34-2.43L798.34-2.43L798.34-2.43Q800-2.43 800.96-3.07L800.96-3.07L800.96-3.07Q801.92-3.71 802.62-4.99L802.62-4.99L802.62-4.99Q804.54-8.45 806.08-18.94L806.08-18.94L806.08-18.94Q806.53-22.02 806.53-25.02L806.53-25.02L806.53-25.02Q806.53-28.03 805.86-28.99L805.86-28.99L805.86-28.99Q805.18-29.95 803.90-29.95L803.90-29.95L803.90-29.95Q800-29.95 798.72-22.34L798.72-22.34ZM823.68-6.40L823.68-6.40L823.68-6.40Q823.68-8.13 824.58-12.48L824.58-12.48L827.97-29.76L824.19-29.76L824.45-31.68L824.45-31.68Q832.13-33.98 839.55-39.62L839.55-39.62L842.62-39.62L841.09-32.64L846.08-32.64L845.50-29.76L840.58-29.76L837.31-12.48L837.31-12.48Q836.48-8.51 836.48-7.17L836.48-7.17L836.48-7.17Q836.48-4.10 839.17-3.46L839.17-3.46L839.17-3.46Q838.53-1.28 836.22 0L836.22 0L836.22 0Q833.92 1.28 830.66 1.28L830.66 1.28L830.66 1.28Q827.39 1.28 825.54-0.77L825.54-0.77L825.54-0.77Q823.68-2.82 823.68-6.40ZM866.11-7.23L866.11-7.23L866.11-7.23Q862.78-3.78 856.70-3.78L856.70-3.78L856.70-3.78Q849.09-3.78 847.49-9.34L847.49-9.34L847.49-9.34Q846.98-11.01 846.98-12.86L846.98-12.86L846.98-12.86Q846.98-14.72 847.36-16.64L847.36-16.64L850.37-32.64L863.36-33.92L859.84-15.30L859.84-15.30Q859.71-14.46 859.52-13.57L859.52-13.57L859.52-13.57Q859.33-12.67 859.33-11.74L859.33-11.74L859.33-11.74Q859.33-10.82 859.65-10.21L859.65-10.21L859.65-10.21Q859.97-9.60 860.42-9.22L860.42-9.22L860.42-9.22Q861.18-8.70 862.56-8.70L862.56-8.70L862.56-8.70Q863.94-8.70 865.12-10.37L865.12-10.37L865.12-10.37Q866.30-12.03 866.88-14.91L866.88-14.91L870.40-32.64L883.01-33.92L878.21-8.77L878.21-8.77Q875.84 3.52 870.98 8.38L870.98 8.38L870.98 8.38Q868.48 10.88 865.25 11.87L865.25 11.87L865.25 11.87Q862.02 12.86 857.86 12.86L857.86 12.86L857.86 12.86Q851.14 12.86 847.30 10.75L847.30 10.75L847.30 10.75Q843.46 8.64 843.46 5.12L843.46 5.12L843.46 5.12Q843.46 2.50 845.44 0.99L845.44 0.99L845.44 0.99Q847.42-0.51 850.50-0.51L850.50-0.51L850.50-0.51Q853.18-0.51 855.23 0.64L855.23 0.64L855.23 0.64Q856.45 1.34 857.02 2.24L857.02 2.24L857.02 2.24Q855.55 3.52 855.55 5.63L855.55 5.63L855.55 5.63Q855.55 8.45 858.11 8.45L858.11 8.45L858.11 8.45Q862.34 8.45 864.77-1.28L864.77-1.28L864.77-1.28Q865.47-4.16 866.11-7.23ZM896.77-3.78L896.77-3.78L896.77-3.78Q896.77-6.21 898.59-7.52L898.59-7.52L898.59-7.52Q900.42-8.83 903.10-8.83L903.10-8.83L903.10-8.83Q905.79-8.83 907.49-7.52L907.49-7.52L907.49-7.52Q909.18-6.21 909.18-3.78L909.18-3.78L909.18-3.78Q909.18-1.34 907.30 0L907.30 0L907.30 0Q905.41 1.34 902.72 1.34L902.72 1.34L902.72 1.34Q900.03 1.34 898.40 0L898.40 0L898.40 0Q896.77-1.34 896.77-3.78ZM900.22-15.81L900.22-15.81L900.22-15.81Q900.22-16.26 900.35-16.90L900.35-16.90L905.34-42.62L905.34-42.62Q907.71-43.52 910.53-43.52L910.53-43.52L910.53-43.52Q913.34-43.52 914.82-41.73L914.82-41.73L914.82-41.73Q916.29-39.94 916.29-37.28L916.29-37.28L916.29-37.28Q916.29-34.62 915.26-31.65L915.26-31.65L915.26-31.65Q914.24-28.67 912.99-25.66L912.99-25.66L912.99-25.66Q911.74-22.66 910.69-19.55L910.69-19.55L910.69-19.55Q909.63-16.45 909.57-13.18L909.57-13.18L909.57-13.18Q908.10-11.52 905.54-11.52L905.54-11.52L905.54-11.52Q902.98-11.52 901.60-12.70L901.60-12.70L901.60-12.70Q900.22-13.89 900.22-15.81Z" fill="#c5c5c5"></path></g></g><style>text {
  font-size: 64px;
  font-family: Arial Black;
  dominant-baseline: central;
  text-anchor: middle;
}</style></svg>