<svg xmlns="http://www.w3.org/2000/svg" xmlns:se="http://svg-edit.googlecode.com" xmlns:xlink="http://www.w3.org/1999/xlink" xmlns:dc="http://purl.org/dc/elements/1.1/" xmlns:cc="http://creativecommons.org/ns#" xmlns:rdf="http://www.w3.org/1999/02/22-rdf-syntax-ns#" xmlns:inkscape="http://www.inkscape.org/namespaces/inkscape" width="118.47933876481059" height="85.26446254936843">                                    <title>my vector image</title>                                    <!-- Created with Vector Paint - http://www.vectorpaint.yaks.com/ https://chrome.google.com/webstore/detail/hnbpdiengicdefcjecjbnjnoifekhgdo -->                                    <rect id="backgroundrect" width="100%" height="100%" x="0" y="0" fill="#FFFFFF" stroke="none" class="" style=""/>                                <g class="currentLayer" style=""><title>Layer 1</title><path fill="#dadada" stroke="#222222" stroke-width="2" stroke-linejoin="round" stroke-dashoffset="" fill-rule="nonzero" marker-start="" marker-mid="" marker-end="" id="svg_1" d="M73.17201916086006,70.95240114614622 L73.9607715893565,63.09906592414322 L64.67875594244276,61.732384148232555 C41.17876068079808,58.272405572551264 18.143482488980354,43.600611393140156 5.317655210224395,23.923691503339057 C3.0165848970944573,20.39347269726241 1.4764280169946389,16.992268147197862 1.895098379330534,16.365446594682034 C2.85544435250198,14.927474168010335 26.25653550587557,3.4793387397800046 28.235489073148557,3.4793387397800046 C29.042774078389947,3.4793387397800046 30.98203682085446,5.584809098110675 32.54493805323509,8.158169224802855 C39.21053147119531,19.133038995938 56.46091303295337,30.57990118736552 68.60638568516234,32.08733221850214 L73.53052075526524,32.69852125247155 L72.68387361187261,25.91132379538871 C71.80495020314484,18.86531620035732 72.05213785700518,17.385751371399078 74.10815315760675,17.385751371399078 C75.42285010065183,17.385751371399078 114.66942049506386,44.4437346581698 115.79136564537117,46.12367866604593 C116.64249592188838,47.398050773613015 111.24448641881384,52.12575233132422 91.9176269010842,67.03274164272445 C83.52253015692915,73.50787229573329 75.69296555981153,78.80574344168782 74.51855284638604,78.80574344168782 C72.63884353985512,78.80574344168782 72.47768770751173,77.86579405442328 73.17201533892211,70.95240821968422 L73.17201916086006,70.95240114614622 z" style="color: rgb(0, 0, 0);" class="" fill-opacity="1" transform="rotate(-167.26739501953125 58.85123825073242,41.142547607421875) "/></g></svg>