<svg width="1078.5474365234375px" height="122.021240234375px" xmlns="http://www.w3.org/2000/svg" viewBox="-289.2737182617187 13.9893798828125 1078.5474365234375 122.021240234375" style="background: rgba(0, 0, 0, 0);" preserveAspectRatio="xMidYMid"><defs><filter id="editing-extrusion" x="-100%" y="-100%" width="300%" height="300%"><feFlood result="color1" flood-color="#444"></feFlood><feConvolveMatrix order="8,8" divisor="1" kernelMatrix="1 0 0 0 0 0 0 0 0 1 0 0 0 0 0 0 0 0 1 0 0 0 0 0 0 0 0 1 0 0 0 0 0 0 0 0 1 0 0 0 0 0 0 0 0 1 0 0 0 0 0 0 0 0 1 0 0 0 0 0 0 0 0 1" in="SourceAlpha" result="extrude"></feConvolveMatrix><feComposite in="color1" in2="extrude" result="comp-extrude" operator="in"></feComposite><feOffset dx="4" dy="4" in="comp-extrude" result="offset-extrude"></feOffset><feMerge><feMergeNode in="offset-extrude"></feMergeNode><feMergeNode in="SourceGraphic"></feMergeNode></feMerge></filter></defs><g filter="url(#editing-extrusion)"><g transform="translate(-138.785609126091, 104.75218772888184)"><path d="M26.05-29.57L26.05-29.57L26.05-29.57Q27.01-31.49 27.01-33.28L27.01-33.28L27.01-33.28Q27.01-35.07 26.82-36.06L26.82-36.06L26.82-36.06Q26.62-37.06 26.18-37.82L26.18-37.82L26.18-37.82Q25.22-39.49 23.30-39.49L23.30-39.49L23.30-39.49Q20.93-39.49 19.01-37.76L19.01-37.76L19.01-37.76Q16.96-35.97 16.96-33.15L16.96-33.15L16.96-33.15Q16.96-31.36 18.21-29.98L18.21-29.98L18.21-29.98Q19.46-28.61 21.38-27.33L21.38-27.33L21.38-27.33Q23.30-26.05 25.47-24.77L25.47-24.77L25.47-24.77Q27.65-23.49 29.57-21.95L29.57-21.95L29.57-21.95Q33.98-18.43 33.98-13.70L33.98-13.70L33.98-13.70Q33.98-10.50 32.29-7.78L32.29-7.78L32.29-7.78Q30.59-5.06 27.78-3.07L27.78-3.07L27.78-3.07Q21.63 1.28 13.50 1.28L13.50 1.28L13.50 1.28Q6.91 1.28 3.52-0.86L3.52-0.86L3.52-0.86Q0.13-3.01 0.13-6.27L0.13-6.27L0.13-6.27Q0.13-12.10 4.67-13.57L4.67-13.57L4.67-13.57Q5.95-14.02 7.90-14.02L7.90-14.02L7.90-14.02Q9.86-14.02 12.10-13.18L12.10-13.18L12.10-13.18Q11.07-10.56 11.07-8.19L11.07-8.19L11.07-8.19Q11.07-3.07 14.72-3.07L14.72-3.07L14.72-3.07Q17.09-3.07 19.04-4.80L19.04-4.80L19.04-4.80Q20.99-6.53 20.99-8.48L20.99-8.48L20.99-8.48Q20.99-10.43 19.74-11.84L19.74-11.84L19.74-11.84Q18.50-13.25 16.64-14.37L16.64-14.37L16.64-14.37Q14.78-15.49 12.64-16.58L12.64-16.58L12.64-16.58Q10.50-17.66 8.64-19.20L8.64-19.20L8.64-19.20Q4.29-22.72 4.29-28.35L4.29-28.35L4.29-28.35Q4.29-32 6.08-34.85L6.08-34.85L6.08-34.85Q7.87-37.70 10.75-39.62L10.75-39.62L10.75-39.62Q16.51-43.52 23.58-43.52L23.58-43.52L23.58-43.52Q30.66-43.52 34.08-41.41L34.08-41.41L34.08-41.41Q37.50-39.30 37.50-35.71L37.50-35.71L37.50-35.71Q37.50-32.58 35.07-30.59L35.07-30.59L35.07-30.59Q32.96-28.93 30.40-28.93L30.40-28.93L30.40-28.93Q27.84-28.93 26.05-29.57ZM39.87-6.40L39.87-6.40L39.87-6.40Q39.87-8.13 40.77-12.48L40.77-12.48L44.16-29.76L40.38-29.76L40.64-31.68L40.64-31.68Q48.32-33.98 55.74-39.62L55.74-39.62L58.82-39.62L57.28-32.64L62.27-32.64L61.70-29.76L56.77-29.76L53.50-12.48L53.50-12.48Q52.67-8.51 52.67-7.17L52.67-7.17L52.67-7.17Q52.67-4.10 55.36-3.46L55.36-3.46L55.36-3.46Q54.72-1.28 52.42 0L52.42 0L52.42 0Q50.11 1.28 46.85 1.28L46.85 1.28L46.85 1.28Q43.58 1.28 41.73-0.77L41.73-0.77L41.73-0.77Q39.87-2.82 39.87-6.40ZM64.48-1.92L64.48-1.92L64.48-1.92Q62.98-3.58 62.30-6.21L62.30-6.21L62.30-6.21Q61.63-8.83 61.63-13.12L61.63-13.12L61.63-13.12Q61.63-17.41 63.10-21.31L63.10-21.31L63.10-21.31Q64.58-25.22 67.26-28.03L67.26-28.03L67.26-28.03Q72.77-33.92 81.86-33.92L81.86-33.92L81.86-33.92Q85.12-33.92 87.49-32.83L87.49-32.83L98.43-33.92L93.70-8.96L93.70-8.96Q93.50-8.19 93.50-6.78L93.50-6.78L93.50-6.78Q93.50-5.38 94.37-4.48L94.37-4.48L94.37-4.48Q95.23-3.58 96.51-3.46L96.51-3.46L96.51-3.46Q95.87-1.28 93.54 0L93.54 0L93.54 0Q91.20 1.28 88.58 1.28L88.58 1.28L88.58 1.28Q85.95 1.28 84.19 0.29L84.19 0.29L84.19 0.29Q82.43-0.70 81.92-2.37L81.92-2.37L81.92-2.37Q80.90-0.77 78.72 0.26L78.72 0.26L78.72 0.26Q76.54 1.28 73.63 1.28L73.63 1.28L73.63 1.28Q70.72 1.28 68.35 0.51L68.35 0.51L68.35 0.51Q65.98-0.26 64.48-1.92ZM77.98-27.90L77.98-27.90L77.98-27.90Q77.25-26.75 76.61-24.80L76.61-24.80L76.61-24.80Q75.97-22.85 74.91-17.63L74.91-17.63L74.91-17.63Q73.86-12.42 73.86-8.70L73.86-8.70L73.86-8.70Q73.86-4.99 74.43-3.90L74.43-3.90L74.43-3.90Q75.01-2.82 76.03-2.82L76.03-2.82L76.03-2.82Q78.08-2.82 79.58-4.77L79.58-4.77L79.58-4.77Q81.09-6.72 81.66-10.18L81.66-10.18L85.06-28.93L85.06-28.93Q83.71-30.08 82.14-30.08L82.14-30.08L82.14-30.08Q80.58-30.08 79.65-29.57L79.65-29.57L79.65-29.57Q78.72-29.06 77.98-27.90ZM121.92-17.98L121.92-17.98L121.92-17.98Q124.22-22.08 124.22-26.24L124.22-26.24L124.22-26.24Q124.22-28.99 122.24-28.99L122.24-28.99L122.24-28.99Q120.70-28.99 119.10-26.37L119.10-26.37L119.10-26.37Q117.44-23.74 116.93-20.35L116.93-20.35L113.60 0L100.35 1.28L106.88-32.64L117.44-33.92L116.29-27.46L116.29-27.46Q119.42-33.92 126.46-33.92L126.46-33.92L126.46-33.92Q130.18-33.92 132.19-32L132.19-32L132.19-32Q134.21-30.08 134.21-26.14L134.21-26.14L134.21-26.14Q134.21-22.21 131.62-19.71L131.62-19.71L131.62-19.71Q129.02-17.22 124.61-17.22L124.61-17.22L124.61-17.22Q122.69-17.22 121.92-17.98ZM136.26-6.40L136.26-6.40L136.26-6.40Q136.26-8.13 137.15-12.48L137.15-12.48L140.54-29.76L136.77-29.76L137.02-31.68L137.02-31.68Q144.70-33.98 152.13-39.62L152.13-39.62L155.20-39.62L153.66-32.64L158.66-32.64L158.08-29.76L153.15-29.76L149.89-12.48L149.89-12.48Q149.06-8.51 149.06-7.17L149.06-7.17L149.06-7.17Q149.06-4.10 151.74-3.46L151.74-3.46L151.74-3.46Q151.10-1.28 148.80 0L148.80 0L148.80 0Q146.50 1.28 143.23 1.28L143.23 1.28L143.23 1.28Q139.97 1.28 138.11-0.77L138.11-0.77L138.11-0.77Q136.26-2.82 136.26-6.40ZM186.82-3.52L186.82-3.52L186.82-3.52Q184.83 1.28 178.50 1.28L178.50 1.28L178.50 1.28Q175.30 1.28 173.25-0.96L173.25-0.96L173.25-0.96Q171.58-2.82 171.58-4.93L171.58-4.93L171.58-4.93Q171.58-9.73 173.82-20.22L173.82-20.22L178.50-44.80L191.49-46.08L185.28-13.70L185.28-13.70Q184.19-8.96 184.19-7.30L184.19-7.30L184.19-7.30Q184.19-3.65 186.82-3.52ZM206.21 1.28L206.21 1.28L206.21 1.28Q192.13 1.28 192.13-11.97L192.13-11.97L192.13-11.97Q192.13-21.38 197.31-27.46L197.31-27.46L197.31-27.46Q202.82-33.92 212.35-33.92L212.35-33.92L212.35-33.92Q219.26-33.92 222.78-30.72L222.78-30.72L222.78-30.72Q226.30-27.52 226.30-20.80L226.30-20.80L226.30-20.80Q226.30-10.56 220.80-4.61L220.80-4.61L220.80-4.61Q215.42 1.28 206.21 1.28ZM207.87-26.56L207.87-26.56L207.87-26.56Q207.10-24.83 206.50-22.24L206.50-22.24L206.50-22.24Q205.89-19.65 205.12-15.55L205.12-15.55L205.12-15.55Q204.35-11.46 204.35-6.40L204.35-6.40L204.35-6.40Q204.35-4.74 204.90-3.65L204.90-3.65L204.90-3.65Q205.44-2.56 206.91-2.56L206.91-2.56L206.91-2.56Q208.38-2.56 209.31-3.26L209.31-3.26L209.31-3.26Q210.24-3.97 210.94-5.63L210.94-5.63L210.94-5.63Q212.22-8.58 213.25-14.05L213.25-14.05L213.25-14.05Q214.27-19.52 214.37-21.89L214.37-21.89L214.37-21.89Q214.46-24.26 214.46-26.02L214.46-26.02L214.46-26.02Q214.46-27.78 213.95-28.93L213.95-28.93L213.95-28.93Q213.44-30.08 212.00-30.08L212.00-30.08L212.00-30.08Q210.56-30.08 209.60-29.18L209.60-29.18L209.60-29.18Q208.64-28.29 207.87-26.56ZM244.03 1.28L244.03 1.28L244.03 1.28Q229.95 1.28 229.95-11.97L229.95-11.97L229.95-11.97Q229.95-21.38 235.14-27.46L235.14-27.46L235.14-27.46Q240.64-33.92 250.18-33.92L250.18-33.92L250.18-33.92Q257.09-33.92 260.61-30.72L260.61-30.72L260.61-30.72Q264.13-27.52 264.13-20.80L264.13-20.80L264.13-20.80Q264.13-10.56 258.62-4.61L258.62-4.61L258.62-4.61Q253.25 1.28 244.03 1.28ZM245.70-26.56L245.70-26.56L245.70-26.56Q244.93-24.83 244.32-22.24L244.32-22.24L244.32-22.24Q243.71-19.65 242.94-15.55L242.94-15.55L242.94-15.55Q242.18-11.46 242.18-6.40L242.18-6.40L242.18-6.40Q242.18-4.74 242.72-3.65L242.72-3.65L242.72-3.65Q243.26-2.56 244.74-2.56L244.74-2.56L244.74-2.56Q246.21-2.56 247.14-3.26L247.14-3.26L247.14-3.26Q248.06-3.97 248.77-5.63L248.77-5.63L248.77-5.63Q250.05-8.58 251.07-14.05L251.07-14.05L251.07-14.05Q252.10-19.52 252.19-21.89L252.19-21.89L252.19-21.89Q252.29-24.26 252.29-26.02L252.29-26.02L252.29-26.02Q252.29-27.78 251.78-28.93L251.78-28.93L251.78-28.93Q251.26-30.08 249.82-30.08L249.82-30.08L249.82-30.08Q248.38-30.08 247.42-29.18L247.42-29.18L247.42-29.18Q246.46-28.29 245.70-26.56ZM284.42-30.34L284.42-30.34L284.42-30.34Q287.87-33.92 295.17-33.92L295.17-33.92L295.17-33.92Q299.20-33.92 301.41-31.78L301.41-31.78L301.41-31.78Q303.62-29.63 303.62-25.70L303.62-25.70L303.62-25.70Q303.62-21.76 301.41-18.98L301.41-18.98L301.41-18.98Q299.20-16.19 295.10-15.04L295.10-15.04L295.10-15.04Q295.42-13.76 295.87-12.42L295.87-12.42L296.77-9.86L296.77-9.86Q297.98-6.59 298.94-5.44L298.94-5.44L298.94-5.44Q299.90-4.29 301.18-3.90L301.18-3.90L301.18-3.90Q300.48-1.28 297.92 0.13L297.92 0.13L297.92 0.13Q295.87 1.28 293.06 1.28L293.06 1.28L293.06 1.28Q284.80 1.28 283.71-11.46L283.71-11.46L283.71-11.46Q283.52-13.25 283.52-15.04L283.52-15.04L283.52-15.04Q286.72-15.94 288.96-18.94L288.96-18.94L288.96-18.94Q291.20-21.95 291.20-25.47L291.20-25.47L291.20-25.47Q291.20-28.99 288.70-28.99L288.70-28.99L288.70-28.99Q286.91-28.99 285.50-27.01L285.50-27.01L285.50-27.01Q284.10-25.02 283.46-21.63L283.46-21.63L279.23 0L266.30 1.28L275.26-44.80L288.13-46.08L286.66-38.46L286.66-38.46Q285.70-33.09 284.42-30.34ZM321.92-3.52L321.92-3.52L321.92-3.52Q319.94 1.28 313.60 1.28L313.60 1.28L313.60 1.28Q310.34 1.28 308.29-0.96L308.29-0.96L308.29-0.96Q306.56-2.94 306.56-4.93L306.56-4.93L306.56-4.93Q306.56-10.11 308.93-20.22L308.93-20.22L311.30-32.64L324.29-33.92L320.38-13.70L320.38-13.70Q319.30-8.96 319.30-7.30L319.30-7.30L319.30-7.30Q319.30-3.65 321.92-3.52ZM312.45-41.54L312.45-41.54L312.45-41.54Q312.45-44.03 314.53-45.38L314.53-45.38L314.53-45.38Q316.61-46.72 319.62-46.72L319.62-46.72L319.62-46.72Q322.62-46.72 324.45-45.38L324.45-45.38L324.45-45.38Q326.27-44.03 326.27-41.54L326.27-41.54L326.27-41.54Q326.27-39.04 324.26-37.76L324.26-37.76L324.26-37.76Q322.24-36.48 319.23-36.48L319.23-36.48L319.23-36.48Q316.22-36.48 314.34-37.76L314.34-37.76L314.34-37.76Q312.45-39.04 312.45-41.54ZM354.43 1.28L354.43 1.28L354.43 1.28Q346.69 1.28 346.69-4.74L346.69-4.74L346.69-4.74Q346.75-6.40 347.26-9.22L347.26-9.22L348.42-15.10L348.42-15.10Q350.14-23.42 350.14-25.28L350.14-25.28L350.14-25.28Q350.14-28.99 347.97-28.99L347.97-28.99L347.97-28.99Q344.32-28.99 342.40-19.46L342.40-19.46L338.62 0L325.76 1.28L332.42-32.70L342.91-33.92L341.89-27.65L341.89-27.65Q344.90-33.92 354.11-33.92L354.11-33.92L354.11-33.92Q358.59-33.92 360.48-32.03L360.48-32.03L360.48-32.03Q362.37-30.14 362.37-25.92L362.37-25.92L362.37-25.92Q362.37-21.95 360.32-12.67L360.32-12.67L360.32-12.67Q359.36-8.51 359.36-6.94L359.36-6.94L359.36-6.94Q359.36-5.38 360.22-4.48L360.22-4.48L360.22-4.48Q361.09-3.58 362.37-3.46L362.37-3.46L362.37-3.46Q361.73-1.28 359.52 0L359.52 0L359.52 0Q357.31 1.28 354.43 1.28ZM372.03-26.75L372.03-26.75L372.03-26.75Q374.21-29.82 377.50-31.87L377.50-31.87L377.50-31.87Q380.80-33.92 384.83-33.92L384.83-33.92L384.83-33.92Q388.86-33.92 390.78-32.64L390.78-32.64L403.33-33.92L398.98-9.34L398.98-9.34Q396.74 3.20 392 8.13L392 8.13L392 8.13Q387.46 12.80 378.62 12.80L378.62 12.80L378.62 12.80Q371.90 12.80 368.06 10.69L368.06 10.69L368.06 10.69Q364.22 8.58 364.22 5.06L364.22 5.06L364.22 5.06Q364.22 2.43 366.21 0.93L366.21 0.93L366.21 0.93Q368.19-0.58 371.26-0.58L371.26-0.58L371.26-0.58Q373.95-0.58 376 0.64L376 0.64L376 0.64Q377.22 1.28 377.79 2.18L377.79 2.18L377.79 2.18Q376.32 3.46 376.32 5.57L376.32 5.57L376.32 5.57Q376.32 8.32 378.88 8.32L378.88 8.32L378.88 8.32Q383.17 8.32 385.60-1.79L385.60-1.79L385.60-1.79Q386.30-4.54 386.88-7.30L386.88-7.30L386.88-7.30Q384-3.78 377.47-3.78L377.47-3.78L377.47-3.78Q372.93-3.78 370.30-5.95L370.30-5.95L370.30-5.95Q367.68-8.13 367.68-13.25L367.68-13.25L367.68-13.25Q367.68-16.45 368.77-20.06L368.77-20.06L368.77-20.06Q369.86-23.68 372.03-26.75ZM380.35-13.06L380.35-13.06L380.35-13.06Q380.35-8.70 382.59-8.70L382.59-8.70L382.59-8.70Q384.13-8.70 385.60-10.37L385.60-10.37L385.60-10.37Q386.75-11.71 387.20-13.70L387.20-13.70L390.46-30.14L390.46-30.14Q390.14-30.21 389.82-30.34L389.82-30.34L389.82-30.34Q389.18-30.59 388.35-30.59L388.35-30.59L388.35-30.59Q384.45-30.59 382.14-24.19L382.14-24.19L382.14-24.19Q380.35-19.20 380.35-13.06ZM443.97-37.12L443.97-37.12L443.97-37.12Q444.86-38.66 444.86-40.32L444.86-40.32L444.86-40.32Q444.86-43.26 443.07-43.26L443.07-43.26L443.07-43.26Q440.32-43.26 439.17-37.63L439.17-37.63L438.21-32.64L444.03-32.64L443.65-29.76L437.63-29.76L431.87 0L418.94 1.28L425.09-29.76L420.54-29.76L421.12-32.64L425.60-32.64L426.94-37.70L426.94-37.70Q428.10-42.37 433.02-44.54L433.02-44.54L433.02-44.54Q436.61-46.08 442.62-46.08L442.62-46.08L442.62-46.08Q448.64-46.08 451.33-44.54L451.33-44.54L451.33-44.54Q454.02-43.01 454.02-40.96L454.02-40.96L454.02-40.96Q454.02-38.91 452.42-37.63L452.42-37.63L452.42-37.63Q450.82-36.35 449.02-36.35L449.02-36.35L449.02-36.35Q445.50-36.35 443.97-37.12ZM456.90 1.28L456.90 1.28L456.90 1.28Q442.82 1.28 442.82-11.97L442.82-11.97L442.82-11.97Q442.82-21.38 448-27.46L448-27.46L448-27.46Q453.50-33.92 463.04-33.92L463.04-33.92L463.04-33.92Q469.95-33.92 473.47-30.72L473.47-30.72L473.47-30.72Q476.99-27.52 476.99-20.80L476.99-20.80L476.99-20.80Q476.99-10.56 471.49-4.61L471.49-4.61L471.49-4.61Q466.11 1.28 456.90 1.28ZM458.56-26.56L458.56-26.56L458.56-26.56Q457.79-24.83 457.18-22.24L457.18-22.24L457.18-22.24Q456.58-19.65 455.81-15.55L455.81-15.55L455.81-15.55Q455.04-11.46 455.04-6.40L455.04-6.40L455.04-6.40Q455.04-4.74 455.58-3.65L455.58-3.65L455.58-3.65Q456.13-2.56 457.60-2.56L457.60-2.56L457.60-2.56Q459.07-2.56 460-3.26L460-3.26L460-3.26Q460.93-3.97 461.63-5.63L461.63-5.63L461.63-5.63Q462.91-8.58 463.94-14.05L463.94-14.05L463.94-14.05Q464.96-19.52 465.06-21.89L465.06-21.89L465.06-21.89Q465.15-24.26 465.15-26.02L465.15-26.02L465.15-26.02Q465.15-27.78 464.64-28.93L464.64-28.93L464.64-28.93Q464.13-30.08 462.69-30.08L462.69-30.08L462.69-30.08Q461.25-30.08 460.29-29.18L460.29-29.18L460.29-29.18Q459.33-28.29 458.56-26.56ZM500.80-17.98L500.80-17.98L500.80-17.98Q503.10-22.08 503.10-26.24L503.10-26.24L503.10-26.24Q503.10-28.99 501.12-28.99L501.12-28.99L501.12-28.99Q499.58-28.99 497.98-26.37L497.98-26.37L497.98-26.37Q496.32-23.74 495.81-20.35L495.81-20.35L492.48 0L479.23 1.28L485.76-32.64L496.32-33.92L495.17-27.46L495.17-27.46Q498.30-33.92 505.34-33.92L505.34-33.92L505.34-33.92Q509.06-33.92 511.07-32L511.07-32L511.07-32Q513.09-30.08 513.09-26.14L513.09-26.14L513.09-26.14Q513.09-22.21 510.50-19.71L510.50-19.71L510.50-19.71Q507.90-17.22 503.49-17.22L503.49-17.22L503.49-17.22Q501.57-17.22 500.80-17.98ZM573.38 1.28L573.38 1.28L573.38 1.28Q565.63 1.28 565.63-4.74L565.63-4.74L565.63-4.74Q565.63-7.36 566.75-12.45L566.75-12.45L566.75-12.45Q567.87-17.54 568.26-19.58L568.26-19.58L568.26-19.58Q569.15-24.26 569.15-25.73L569.15-25.73L569.15-25.73Q569.15-28.99 566.72-28.99L566.72-28.99L566.72-28.99Q565.12-28.99 563.58-26.78L563.58-26.78L563.58-26.78Q562.05-24.58 561.34-20.16L561.34-20.16L557.38 0L544.90 1.28L548.35-16.13L548.35-16.13Q548.93-19.01 549.44-22.27L549.44-22.27L549.44-22.27Q549.95-25.54 549.95-26.05L549.95-26.05L549.95-26.05Q549.95-28.99 547.78-28.99L547.78-28.99L547.78-28.99Q546.30-28.99 544.70-26.82L544.70-26.82L544.70-26.82Q543.10-24.64 542.21-20.16L542.21-20.16L538.30 0L525.70 1.28L532.42-32.64L542.85-33.92L541.76-27.46L541.76-27.46Q543.42-30.91 546.50-32.42L546.50-32.42L546.50-32.42Q549.57-33.92 554.37-33.92L554.37-33.92L554.37-33.92Q557.12-33.92 558.91-32.58L558.91-32.58L558.91-32.58Q560.70-31.23 561.28-29.06L561.28-29.06L561.28-29.06Q562.37-31.30 565.15-32.61L565.15-32.61L565.15-32.61Q567.94-33.92 571.36-33.92L571.36-33.92L571.36-33.92Q574.78-33.92 576.48-33.18L576.48-33.18L576.48-33.18Q578.18-32.45 579.20-31.23L579.20-31.23L579.20-31.23Q580.93-28.99 580.93-24.90L580.93-24.90L580.93-24.90Q580.93-20.86 579.20-12.48L579.20-12.48L579.20-12.48Q578.30-8.38 578.30-6.88L578.30-6.88L578.30-6.88Q578.30-5.38 579.17-4.48L579.17-4.48L579.17-4.48Q580.03-3.58 581.31-3.46L581.31-3.46L581.31-3.46Q580.67-1.28 578.46 0L578.46 0L578.46 0Q576.26 1.28 573.38 1.28ZM600.19 1.28L600.19 1.28L600.19 1.28Q586.11 1.28 586.11-11.97L586.11-11.97L586.11-11.97Q586.11-21.38 591.30-27.46L591.30-27.46L591.30-27.46Q596.80-33.92 606.34-33.92L606.34-33.92L606.34-33.92Q613.25-33.92 616.77-30.72L616.77-30.72L616.77-30.72Q620.29-27.52 620.29-20.80L620.29-20.80L620.29-20.80Q620.29-10.56 614.78-4.61L614.78-4.61L614.78-4.61Q609.41 1.28 600.19 1.28ZM601.86-26.56L601.86-26.56L601.86-26.56Q601.09-24.83 600.48-22.24L600.48-22.24L600.48-22.24Q599.87-19.65 599.10-15.55L599.10-15.55L599.10-15.55Q598.34-11.46 598.34-6.40L598.34-6.40L598.34-6.40Q598.34-4.74 598.88-3.65L598.88-3.65L598.88-3.65Q599.42-2.56 600.90-2.56L600.90-2.56L600.90-2.56Q602.37-2.56 603.30-3.26L603.30-3.26L603.30-3.26Q604.22-3.97 604.93-5.63L604.93-5.63L604.93-5.63Q606.21-8.58 607.23-14.05L607.23-14.05L607.23-14.05Q608.26-19.52 608.35-21.89L608.35-21.89L608.35-21.89Q608.45-24.26 608.45-26.02L608.45-26.02L608.45-26.02Q608.45-27.78 607.94-28.93L607.94-28.93L607.94-28.93Q607.42-30.08 605.98-30.08L605.98-30.08L605.98-30.08Q604.54-30.08 603.58-29.18L603.58-29.18L603.58-29.18Q602.62-28.29 601.86-26.56ZM647.30-31.55L647.30-31.55L647.30-31.55Q649.41-33.92 653.06-33.92L653.06-33.92L653.06-33.92Q655.30-33.92 657.02-32.70L657.02-32.70L657.02-32.70Q658.75-31.49 658.75-29.22L658.75-29.22L658.75-29.22Q658.75-26.94 658.05-24.51L658.05-24.51L658.05-24.51Q657.34-22.08 656.26-19.58L656.26-19.58L656.26-19.58Q654.08-14.72 651.07-10.69L651.07-10.69L651.07-10.69Q646.85-4.86 642.78-1.79L642.78-1.79L642.78-1.79Q638.72 1.28 634.30 1.28L634.30 1.28L634.30 1.28Q630.72 1.28 628.54 0.45L628.54 0.45L628.54 0.45Q628.16-12.99 627.68-17.79L627.68-17.79L627.68-17.79Q627.20-22.59 626.82-25.22L626.82-25.22L626.82-25.22Q626.18-30.34 624.26-31.55L624.26-31.55L624.26-31.55Q625.73-32.83 627.17-33.38L627.17-33.38L627.17-33.38Q628.61-33.92 631.58-33.92L631.58-33.92L631.58-33.92Q634.56-33.92 636.67-31.58L636.67-31.58L636.67-31.58Q638.78-29.25 639.20-25.12L639.20-25.12L639.20-25.12Q639.62-20.99 639.62-16L639.62-16L639.62-16Q639.62-11.01 639.23-4.99L639.23-4.99L639.23-4.99Q641.22-6.40 643.33-10.69L643.33-10.69L643.33-10.69Q646.21-16.64 647.23-23.81L647.23-23.81L647.23-23.81Q647.55-25.98 647.55-28.29L647.55-28.29L647.55-28.29Q647.55-30.59 647.30-31.55ZM675.84-3.52L675.84-3.52L675.84-3.52Q673.86 1.28 667.52 1.28L667.52 1.28L667.52 1.28Q664.26 1.28 662.21-0.96L662.21-0.96L662.21-0.96Q660.48-2.94 660.48-4.93L660.48-4.93L660.48-4.93Q660.48-10.11 662.85-20.22L662.85-20.22L665.22-32.64L678.21-33.92L674.30-13.70L674.30-13.70Q673.22-8.96 673.22-7.30L673.22-7.30L673.22-7.30Q673.22-3.65 675.84-3.52ZM666.37-41.54L666.37-41.54L666.37-41.54Q666.37-44.03 668.45-45.38L668.45-45.38L668.45-45.38Q670.53-46.72 673.54-46.72L673.54-46.72L673.54-46.72Q676.54-46.72 678.37-45.38L678.37-45.38L678.37-45.38Q680.19-44.03 680.19-41.54L680.19-41.54L680.19-41.54Q680.19-39.04 678.18-37.76L678.18-37.76L678.18-37.76Q676.16-36.48 673.15-36.48L673.15-36.48L673.15-36.48Q670.14-36.48 668.26-37.76L668.26-37.76L668.26-37.76Q666.37-39.04 666.37-41.54ZM707.20-10.82L707.20-10.82L707.20-10.82Q708.80-9.73 708.80-7.33L708.80-7.33L708.80-7.33Q708.80-4.93 707.58-3.39L707.58-3.39L707.58-3.39Q706.37-1.86 704.38-0.83L704.38-0.83L704.38-0.83Q700.29 1.28 695.87 1.28L695.87 1.28L695.87 1.28Q691.46 1.28 688.86 0.32L688.86 0.32L688.86 0.32Q686.27-0.64 684.54-2.43L684.54-2.43L684.54-2.43Q681.15-5.82 681.15-12.03L681.15-12.03L681.15-12.03Q681.15-21.70 686.40-27.58L686.40-27.58L686.40-27.58Q692.03-33.92 701.82-33.92L701.82-33.92L701.82-33.92Q707.90-33.92 710.91-31.36L710.91-31.36L710.91-31.36Q713.15-29.44 713.15-26.30L713.15-26.30L713.15-26.30Q713.15-15.04 693.70-15.04L693.70-15.04L693.70-15.04Q693.44-13.38 693.44-11.97L693.44-11.97L693.44-11.97Q693.44-9.02 694.75-7.90L694.75-7.90L694.75-7.90Q696.06-6.78 698.50-6.78L698.50-6.78L698.50-6.78Q700.93-6.78 703.52-7.90L703.52-7.90L703.52-7.90Q706.11-9.02 707.20-10.82ZM694.14-17.79L694.14-17.79L694.14-17.79Q698.69-17.79 701.31-20.61L701.31-20.61L701.31-20.61Q703.94-23.30 703.94-27.58L703.94-27.58L703.94-27.58Q703.94-29.06 703.39-29.86L703.39-29.86L703.39-29.86Q702.85-30.66 701.76-30.66L701.76-30.66L701.76-30.66Q700.67-30.66 699.74-30.24L699.74-30.24L699.74-30.24Q698.82-29.82 697.86-28.42L697.86-28.42L697.86-28.42Q695.49-25.22 694.14-17.79ZM734.46-22.46L734.46-22.46L734.46-22.46Q735.36-24.83 735.36-26.88L735.36-26.88L735.36-26.88Q735.36-30.66 732.29-30.66L732.29-30.66L732.29-30.66Q730.69-30.66 729.38-29.22L729.38-29.22L729.38-29.22Q728.06-27.78 728.06-25.98L728.06-25.98L728.06-25.98Q728.06-24.70 729.09-23.68L729.09-23.68L729.09-23.68Q730.56-22.27 734.34-19.97L734.34-19.97L734.34-19.97Q738.11-17.66 739.55-15.78L739.55-15.78L739.55-15.78Q740.99-13.89 740.99-11.30L740.99-11.30L740.99-11.30Q740.99-8.70 739.74-6.34L739.74-6.34L739.74-6.34Q738.50-3.97 736.26-2.30L736.26-2.30L736.26-2.30Q731.46 1.28 723.78 1.28L723.78 1.28L723.78 1.28Q719.62 1.28 716.42-0.90L716.42-0.90L716.42-0.90Q713.22-3.01 713.22-5.50L713.22-5.50L713.22-5.50Q713.22-8 715.04-9.47L715.04-9.47L715.04-9.47Q716.86-10.94 719.55-10.94L719.55-10.94L719.55-10.94Q722.24-10.94 723.90-9.92L723.90-9.92L723.90-9.92Q723.07-7.81 723.07-6.40L723.07-6.40L723.07-6.40Q723.07-2.18 726.66-2.18L726.66-2.18L726.66-2.18Q728.19-2.18 729.22-3.14L729.22-3.14L729.22-3.14Q730.24-4.10 730.24-5.76L730.24-5.76L730.24-5.76Q730.24-9.02 724.74-12.48L724.74-12.48L724.74-12.48Q720.26-15.42 719.23-16.58L719.23-16.58L719.23-16.58Q717.50-18.62 717.50-21.18L717.50-21.18L717.50-21.18Q717.50-23.74 718.72-26.18L718.72-26.18L718.72-26.18Q719.94-28.61 722.18-30.34L722.18-30.34L722.18-30.34Q726.85-33.92 734.98-33.92L734.98-33.92L734.98-33.92Q739.14-33.92 741.60-32.26L741.60-32.26L741.60-32.26Q744.06-30.59 744.06-27.78L744.06-27.78L744.06-27.78Q744.06-24.96 742.37-23.36L742.37-23.36L742.37-23.36Q740.67-21.76 737.60-21.76L737.60-21.76L737.60-21.76Q735.49-21.76 734.46-22.46ZM757.89-3.78L757.89-3.78L757.89-3.78Q757.89-6.21 759.71-7.52L759.71-7.52L759.71-7.52Q761.54-8.83 764.22-8.83L764.22-8.83L764.22-8.83Q766.91-8.83 768.61-7.52L768.61-7.52L768.61-7.52Q770.30-6.21 770.30-3.78L770.30-3.78L770.30-3.78Q770.30-1.34 768.42 0L768.42 0L768.42 0Q766.53 1.34 763.84 1.34L763.84 1.34L763.84 1.34Q761.15 1.34 759.52 0L759.52 0L759.52 0Q757.89-1.34 757.89-3.78ZM761.34-15.81L761.34-15.81L761.34-15.81Q761.34-16.26 761.47-16.90L761.47-16.90L766.46-42.62L766.46-42.62Q768.83-43.52 771.65-43.52L771.65-43.52L771.65-43.52Q774.46-43.52 775.94-41.73L775.94-41.73L775.94-41.73Q777.41-39.94 777.41-37.28L777.41-37.28L777.41-37.28Q777.41-34.62 776.38-31.65L776.38-31.65L776.38-31.65Q775.36-28.67 774.11-25.66L774.11-25.66L774.11-25.66Q772.86-22.66 771.81-19.55L771.81-19.55L771.81-19.55Q770.75-16.45 770.69-13.18L770.69-13.18L770.69-13.18Q769.22-11.52 766.66-11.52L766.66-11.52L766.66-11.52Q764.10-11.52 762.72-12.70L762.72-12.70L762.72-12.70Q761.34-13.89 761.34-15.81Z" fill="#ccc"></path></g></g><style>text {
  font-size: 64px;
  font-family: Arial Black;
  dominant-baseline: central;
  text-anchor: middle;
}</style></svg>